<?xml version="1.0" encoding="UTF-8" standalone="no"?>
<!-- Created with Inkscape (http://www.inkscape.org/) -->

<svg
   width="154.44688mm"
   height="195.94914mm"
   viewBox="0 0 154.44688 195.94914"
   version="1.1"
   id="svg5"
   inkscape:version="1.1.1 (3bf5ae0d25, 2021-09-20)"
   sodipodi:docname="Lenin.svg"
   xmlns:inkscape="http://www.inkscape.org/namespaces/inkscape"
   xmlns:sodipodi="http://sodipodi.sourceforge.net/DTD/sodipodi-0.dtd"
   xmlns="http://www.w3.org/2000/svg"
   xmlns:svg="http://www.w3.org/2000/svg">
  <sodipodi:namedview
     id="namedview7"
     pagecolor="#ffffff"
     bordercolor="#111111"
     borderopacity="1"
     inkscape:pageshadow="0"
     inkscape:pageopacity="0"
     inkscape:pagecheckerboard="1"
     inkscape:document-units="mm"
     showgrid="false"
     fit-margin-top="0"
     fit-margin-left="0"
     fit-margin-right="0"
     fit-margin-bottom="0"
     inkscape:zoom="1"
     inkscape:cx="181.5"
     inkscape:cy="366.5"
     inkscape:window-width="1920"
     inkscape:window-height="1001"
     inkscape:window-x="-9"
     inkscape:window-y="-9"
     inkscape:window-maximized="1"
     inkscape:current-layer="layer1" />
  <defs
     id="defs2" />
  <g
     inkscape:label="Layer 1"
     inkscape:groupmode="layer"
     id="layer1"
     transform="translate(184.19089,-27.292257)">
    <path
       id="path1095"
       style="fill:#000000;stroke:none;stroke-width:1.88976;stroke-linecap:round;stroke-linejoin:round;stroke-dashoffset:1.51181;stop-color:#000000"
       d="m 322.33594,174.13086 -11.51563,3.18945 14.97071,20.19922 -27.64063,22.32422 -7.83008,-8.08008 -26.02929,21.47461 18.88867,14.66992 -12.20899,9.14258 23.03516,16.79688 -11.28711,16.79687 -56.89258,-42.73633 -11.05664,8.29297 9.9043,13.39453 -13.58985,12.54492 30.86524,39.75782 77.85351,-27.63867 40.07813,-0.85157 17.9668,21.6875 3.68554,55.70508 -17.04492,28.06445 -54.82031,52.30469 -30.86524,1.70117 -13.35937,-14.45898 -23.0332,14.0332 -9.67383,35.71875 -65.41602,20.41211 2.76563,16.58399 -72.787112,18.28515 -37.314453,-39.54687 -20.269531,19.13476 5.990234,12.75782 -52.0566405,20.41015 -14.7402345,-16.1582 -2.765625,34.01953 -37.314453,-1.70117 -32.707031,11.90625 3.947265,10.54883 34.212891,-7.33008 75.269531,3.41992 114.857419,92.375 75.26758,26.39453 38.12305,15.0293 42.52344,16.73828 68.91406,-44.47656 30.79101,-135.38477 7.33204,-54.25195 55.23046,-70.8711 31.2793,-118.27734 -1.4668,-53.76367 -16.56836,-42.44922 -18.42578,0.85156 -74.39843,-38.27148 -33.39844,14.0332 z m -58.89649,310.7168 26.39258,13.19531 -64.23633,154.29687 -77.0332,2.50196 38.63086,-77.61914 -8.79688,-13.19727 13.19532,-23.46094 65.49414,-30.30273 z"
       transform="matrix(0.26458333,0,0,0.26458333,-157.76772,27.0676)" />
    <path
       style="fill:#ffffff;stroke:none;stroke-width:0.640322;stroke-linecap:round;stroke-linejoin:round;stroke-dashoffset:1.51181;stop-color:#000000"
       d="m -170.29596,85.797089 7.31312,-14.176168 4.1441,-23.626954 14.62627,-15.751301 19.50167,-4.500373 33.152838,-0.450036 28.76495,18.226503 9.75084,12.376023 9.75083,11.700967 8.77575,16.201339 -4.87542,0.225017 -19.68449,-10.125837 -8.83669,3.712808 -4.57071,-6.469283 -3.04713,0.843811 3.96127,5.344201 -7.31312,5.90673 -2.07206,-2.137668 -6.88653,5.681713 4.99732,3.88157 -3.22998,2.418951 6.09427,4.444113 -2.98619,4.444115 -15.05284,-11.307179 -2.925258,2.193935 2.620528,3.544049 -3.595608,3.319005 8.166318,10.51963 20.59864,-7.31311 10.60403,-0.22501 4.75353,5.73796 0.97509,14.73873 -4.50976,7.42561 -14.50436,13.83863 -8.16633,0.45005 -3.53467,-3.82532 -6.09428,3.71281 -2.55959,9.45077 -17.307738,5.40045 0.73132,4.38787 -19.2579,4.8379 -9.87272,-10.46338 -5.36296,5.06293 1.58452,3.37528 -13.77307,5.40044 -3.90033,-4.27535 -0.73131,9.00074 -9.87273,-0.45003 -8.65386,3.15025 -1.5845,-2.81273 1.34073,-15.07624 7.19124,-10.46336 0.73132,-2.81273 16.21076,-0.22503 5.11918,4.50038 5.60674,-4.27535 3.04714,0.90006 0.48754,4.05035 6.33804,-1.46263 -6.70369,-13.3886 -1.95018,0.67505 1.46263,4.61288 -6.45992,-5.28793 -5.36297,0.56254 -12.43231,-6.63805 -12.18854,0.90008 4.26599,-6.0755 2.19392,-1.68764 1.09698,1.46262 2.19394,0.11246 0.48754,-2.70022 2.19393,-0.22502 0.24377,3.03775 2.43772,0.11246 0.24376,-3.03775 5.48485,0.67505 3.53469,-3.82532 -1.21887,-6.18801 -2.68147,-0.45003 -0.97509,5.85047 -5.24107,-3.15025 -4.26599,0.67506 -3.16902,-2.70023 -2.68148,3.26277 -2.92525,0.56254 -2.19395,-5.96298 14.87004,-18.564035 1.95015,-3.037744 -3.65655,-5.400443 -4.63165,1.35011 z"
       id="path881" />
    <path
       style="fill:#ffffff;stroke:none;stroke-width:0.499999;stroke-linecap:round;stroke-linejoin:round;stroke-dashoffset:1.51181;stop-color:#000000"
       d="m -122.20556,207.85268 13.96623,-28.06177 -2.32771,-3.49156 3.49156,-6.20721 17.32847,-8.01765 1.68112,-6.72449 6.983116,3.49156 -21.207976,55.99424 -19.91481,-6.98312"
       id="path1243" />
    <path
       style="fill:#ffffff;stroke:none;stroke-width:0.499999;stroke-linecap:round;stroke-linejoin:round;stroke-dashoffset:1.51181;stop-color:#000000"
       d="m -175.23293,144.20337 0.82297,3.3376 h 18.10529 v -3.5662 h -4.4806 v -2.28602 l -14.21906,-0.13716 z"
       id="path1358" />
    <path
       style="fill:#000000;stroke:none;stroke-width:0.499999;stroke-linecap:round;stroke-linejoin:round;stroke-dashoffset:1.51181;stop-color:#000000"
       d="m -180.53433,121.12489 5.24106,6.52565 1.09698,1.46262 2.19394,0.11246 0.48754,-2.70022 2.19393,-0.22502 0.24377,3.03775 2.43772,0.11246 0.24376,-3.03775 5.48485,0.67505 3.53469,-3.82532 -1.21887,-6.18801 -2.68147,-0.45003 -0.97509,5.85047 -5.24107,-3.15025 -4.26599,0.67506 -3.16902,-2.70023 -2.68148,3.26277 -2.92525,0.56254"
       id="path1473" />
    <path
       style="fill:#000000;stroke:none;stroke-width:0.499999;stroke-linecap:round;stroke-linejoin:round;stroke-dashoffset:1.51181;stop-color:#000000"
       d="m -181.75318,135.41368 -0.90805,3.18978 7.4283,5.59991 0.2286,-2.65178 14.21906,0.13716 v 2.28602 h 4.4806 v 3.5662 h -18.10529 l -0.51764,2.94896 16.21076,-0.22503 5.11918,4.50038 5.60674,-4.27535 3.04714,0.90006 0.48754,4.05035 6.33804,-1.46263 -6.70369,-13.3886 -1.95018,0.67505 1.46263,4.61288 -6.45992,-5.28793 -5.36297,0.56254 -12.43231,-6.63805 -12.18854,0.90008"
       id="path1508" />
    <path
       style="fill:#000000;stroke:none;stroke-width:0.499999;stroke-linecap:round;stroke-linejoin:round;stroke-dashoffset:1.51181;stop-color:#000000"
       d="m -174.19629,89.509798 6.33805,7.088076 1.95015,-3.037745 -3.65655,-5.400442 -4.63165,1.350111"
       id="path1623" />
    <path
       style="fill:#000000;stroke:none;stroke-width:0.499999;stroke-linecap:round;stroke-linejoin:round;stroke-dashoffset:1.51181;stop-color:#000000"
       d="m -160.61269,86.812027 0.12931,5.301993 1.55181,1.357828 0.0647,3.103608 -2.90964,3.556214 1.35783,2.45702 2.71566,-2.650994 3.94417,5.948584 2.97428,0.32329 v -3.81485 l 3.81485,-0.0647 -6.5305,-8.276284 7.69436,-5.625288 7.43572,2.650998 3.36224,-1.034537 -12.41442,-5.431311 -4.13815,-0.193974 -3.81485,2.780313 z"
       id="path1738" />
    <path
       style="fill:#000000;stroke:none;stroke-width:0.499999;stroke-linecap:round;stroke-linejoin:round;stroke-dashoffset:1.51181;stop-color:#000000"
       d="m -147.61778,108.95291 1.7831,2.10314 h 2.28602 l 3.56619,-1.92025 -0.77725,-1.7831 -2.9261,-0.18288 z"
       id="path1740" />
    <path
       style="fill:#000000;stroke:none;stroke-width:0.499999;stroke-linecap:round;stroke-linejoin:round;stroke-dashoffset:1.51181;stop-color:#000000"
       d="m -143.22862,103.19214 2.28602,-1.41734 2.46891,1.05157 1.05157,-2.56034 7.22383,-0.91441 2.37746,1.64594 -2.2403,1.64593 2.0117,1.87454 2.51462,-0.0457 0.41149,2.56034 -2.10314,0.64009 -2.69751,-1.64594 -5.30357,0.54865 z"
       id="path1742" />
    <path
       style="fill:#000000;stroke:none;stroke-width:0.499999;stroke-linecap:round;stroke-linejoin:round;stroke-dashoffset:1.51181;stop-color:#000000"
       d="m -170.56944,170.49263 -0.68581,2.4689 1.00585,1.18873 2.19458,0.18289 0.54865,-3.38332 -0.68581,-0.77724 z"
       id="path1744" />
    <path
       style="fill:#000000;stroke:none;stroke-width:0.499999;stroke-linecap:round;stroke-linejoin:round;stroke-dashoffset:1.51181;stop-color:#000000"
       d="m -167.68906,162.76587 -1.32589,1.69166 -0.13716,3.20043 2.51462,0.45721 0.59437,-1.87454 1.09729,-1.23445 -0.0457,-2.14886 z"
       id="path1746" />
    <path
       style="fill:#000000;stroke:none;stroke-width:0.499999;stroke-linecap:round;stroke-linejoin:round;stroke-dashoffset:1.51181;stop-color:#000000"
       d="m -79.789605,122.5035 -0.969877,6.14256 -4.202801,2.58634 0.969878,2.26304 2.392363,0.58193 5.301995,-3.68553 1.487144,-0.90522 0.129318,-4.26746 3.685532,-1.68112 2.392365,2.52168 0.969875,-2.52168 -0.323292,-3.87951 -2.004412,-1.74578 -1.034536,0.19398 0.193976,-1.55181 1.422485,-0.12931 v -2.19839 l 3.038949,-1.03454 1.551805,1.55181 0.646583,1.68112 0.06466,5.68994 0.646583,0.58193 1.875097,-1.8751 -0.129318,-8.27628 -2.133729,-3.55622 -4.461433,-0.84056 -2.97429,0.58193 -1.29317,1.48714 -3.038948,0.84056 -0.258633,3.62088 -2.327706,2.3277 2.327706,1.68112 0.581925,1.74578 -0.45261,1.81044 z"
       id="path1766" />
    <path
       style="fill:#000000;stroke:none;stroke-width:0.499999;stroke-linecap:round;stroke-linejoin:round;stroke-dashoffset:1.51181;stop-color:#000000"
       d="m -71.222357,129.03401 -4.881716,2.68332 -0.38795,1.42249 1.487146,1.61646 5.560629,-2.52168 -0.03233,-2.19839 z"
       id="path1768" />
    <path
       style="fill:#ffffff;stroke:none;stroke-width:0.499999;stroke-linecap:round;stroke-linejoin:round;stroke-dashoffset:1.51181;stop-color:#000000"
       d="m -92.204032,218.81229 3.620876,-18.84794 9.181502,-0.90522 -1.551802,24.18227 z"
       id="path1996"
       sodipodi:nodetypes="ccccc" />
  </g>
</svg>
