<?xml version="1.0" encoding="UTF-8" standalone="no"?>
<!-- Created with Inkscape (http://www.inkscape.org/) -->

<svg
   xmlns:dc="http://purl.org/dc/elements/1.1/"
   xmlns:cc="http://creativecommons.org/ns#"
   xmlns:rdf="http://www.w3.org/1999/02/22-rdf-syntax-ns#"
   xmlns:svg="http://www.w3.org/2000/svg"
   xmlns="http://www.w3.org/2000/svg"
   xmlns:xlink="http://www.w3.org/1999/xlink"
   xmlns:sodipodi="http://sodipodi.sourceforge.net/DTD/sodipodi-0.dtd"
   xmlns:inkscape="http://www.inkscape.org/namespaces/inkscape"
   width="207.97942mm"
   height="132.45448mm"
   viewBox="0 0 736.93495 469.3269"
   id="svg2"
   version="1.1"
   inkscape:version="0.91 r13725"
   sodipodi:docname="LPZ.svg">
  <defs
     id="defs4">
    <linearGradient
       inkscape:collect="always"
       id="linearGradient4299">
      <stop
         style="stop-color:#7b7a7e;stop-opacity:1"
         offset="0"
         id="stop4301" />
      <stop
         id="stop4307"
         offset="0.26255229"
         style="stop-color:#dedede;stop-opacity:1" />
      <stop
         style="stop-color:#ffffff;stop-opacity:1"
         offset="0.40906245"
         id="stop4309" />
      <stop
         style="stop-color:#ffffff;stop-opacity:1"
         offset="1"
         id="stop4303" />
    </linearGradient>
    <linearGradient
       inkscape:collect="always"
       id="linearGradient4232">
      <stop
         style="stop-color:#ac4c05;stop-opacity:1"
         offset="0"
         id="stop4234" />
      <stop
         id="stop4244"
         offset="0.12627205"
         style="stop-color:#8a3f02;stop-opacity:1" />
      <stop
         id="stop4240"
         offset="0.26299575"
         style="stop-color:#c35e05;stop-opacity:1" />
      <stop
         style="stop-color:#ec8c20;stop-opacity:1"
         offset="0.69139671"
         id="stop4242" />
      <stop
         style="stop-color:#b66a00;stop-opacity:1"
         offset="1"
         id="stop4236" />
    </linearGradient>
    <linearGradient
       inkscape:collect="always"
       xlink:href="#linearGradient4232"
       id="linearGradient4238"
       x1="605.83966"
       y1="826.26483"
       x2="625.23389"
       y2="826.26483"
       gradientUnits="userSpaceOnUse"
       gradientTransform="translate(60,56)" />
    <filter
       inkscape:collect="always"
       style="color-interpolation-filters:sRGB"
       id="filter4535"
       x="-0.026576554"
       width="1.0531532"
       y="-0.041491631"
       height="1.0829833">
      <feGaussianBlur
         inkscape:collect="always"
         stdDeviation="3.8034587"
         id="feGaussianBlur4537" />
    </filter>
    <filter
       inkscape:collect="always"
       style="color-interpolation-filters:sRGB"
       id="filter4549"
       x="-0.022452286"
       width="1.0449046"
       y="-0.032032102"
       height="1.0640641">
      <feGaussianBlur
         inkscape:collect="always"
         stdDeviation="2.5912294"
         id="feGaussianBlur4551" />
    </filter>
    <filter
       inkscape:collect="always"
       style="color-interpolation-filters:sRGB"
       id="filter4689"
       x="-0.083335049"
       width="1.1666701"
       y="-0.049871508"
       height="1.099743">
      <feGaussianBlur
         inkscape:collect="always"
         stdDeviation="3.2049163"
         id="feGaussianBlur4691" />
    </filter>
    <linearGradient
       inkscape:collect="always"
       xlink:href="#linearGradient4299"
       id="linearGradient4305"
       x1="667.8927"
       y1="943.14594"
       x2="681.7467"
       y2="943.14594"
       gradientUnits="userSpaceOnUse" />
  </defs>
  <sodipodi:namedview
     id="base"
     pagecolor="#ffffff"
     bordercolor="#666666"
     borderopacity="1.0"
     inkscape:pageopacity="0.0"
     inkscape:pageshadow="2"
     inkscape:zoom="6.9641787"
     inkscape:cx="750.87441"
     inkscape:cy="76.895863"
     inkscape:document-units="px"
     inkscape:current-layer="layer1"
     showgrid="false"
     inkscape:window-width="1920"
     inkscape:window-height="1052"
     inkscape:window-x="1920"
     inkscape:window-y="0"
     inkscape:window-maximized="1"
     fit-margin-top="0"
     fit-margin-left="0"
     fit-margin-right="0"
     fit-margin-bottom="0" />
  <metadata
     id="metadata7">
    <rdf:RDF>
      <cc:Work
         rdf:about="">
        <dc:format>image/svg+xml</dc:format>
        <dc:type
           rdf:resource="http://purl.org/dc/dcmitype/StillImage" />
        <dc:title />
      </cc:Work>
    </rdf:RDF>
  </metadata>
  <g
     inkscape:label="Layer 1"
     inkscape:groupmode="layer"
     id="layer1"
     transform="translate(16.453694,-572.72881)">
    <path
       style="opacity:1;fill:#9edbf6;fill-opacity:0.40234375;fill-rule:evenodd;stroke:none;stroke-width:1px;stroke-linecap:butt;stroke-linejoin:miter;stroke-opacity:1"
       d="m 111.51778,573.48647 -127.971474,130.066 0,307.04453 736.244344,-0.035 0,-68.11906 -249.61208,-249.97319 -79.20886,42.47999 z"
       id="path4197"
       inkscape:connector-curvature="0"
       sodipodi:nodetypes="cccccccc" />
    <rect
       style="opacity:1;fill:#ffffff;fill-opacity:1;stroke:#000000;stroke-width:2;stroke-linecap:round;stroke-linejoin:miter;stroke-miterlimit:4;stroke-dasharray:none;stroke-dashoffset:0;stroke-opacity:1"
       id="rect4155"
       width="363.65491"
       height="239.40616"
       x="175.15738"
       y="774.00171" />
    <path
       style="opacity:1;fill:none;fill-opacity:1;stroke:#a91286;stroke-width:10;stroke-linecap:round;stroke-linejoin:miter;stroke-miterlimit:4;stroke-dasharray:none;stroke-dashoffset:0;stroke-opacity:1;filter:url(#filter4535)"
       d="m 184.37207,783.28119 343.47195,0 0,222.00341 -343.47195,0 z"
       id="rect4434"
       inkscape:connector-curvature="0"
       sodipodi:nodetypes="ccccc" />
    <path
       style="fill:none;fill-rule:evenodd;stroke:#002859;stroke-width:5;stroke-linecap:butt;stroke-linejoin:miter;stroke-miterlimit:4;stroke-dasharray:none;stroke-opacity:1"
       d="m 85.42857,1010.5051 21.42857,-414.28576 7.85715,0"
       id="path4157"
       inkscape:connector-curvature="0" />
    <path
       inkscape:connector-curvature="0"
       id="path4159"
       d="m 138.21762,1010.5051 -21.42857,-414.28576 -7.85714,0"
       style="fill:none;fill-rule:evenodd;stroke:#002859;stroke-width:5;stroke-linecap:butt;stroke-linejoin:miter;stroke-miterlimit:4;stroke-dasharray:none;stroke-opacity:1" />
    <path
       style="fill:none;fill-rule:evenodd;stroke:#002859;stroke-width:3;stroke-linecap:butt;stroke-linejoin:miter;stroke-miterlimit:4;stroke-dasharray:none;stroke-opacity:1"
       d="m 85.75889,1008.3571 47.61509,-82.47175 c 0,0 -44.1681,1.4656 -43.32194,0 0.84616,-1.46559 39.99701,-69.27685 39.99701,-69.27685 l -35.19879,0 32.13341,-55.65669 -30.61818,0 27.3458,-47.36431 -25.32549,0 23.05773,-39.93716 -19.77474,0 18.1753,-31.48054 -16.91261,0 15.36063,-26.60539 -13.59286,0 13.09673,-22.68421 -13.09673,0 11.3155,-19.59901 -10.05281,0 9.08672,-15.73866"
       id="path4161"
       inkscape:connector-curvature="0" />
    <path
       style="fill:none;fill-rule:evenodd;stroke:#000000;stroke-width:3;stroke-linecap:butt;stroke-linejoin:miter;stroke-miterlimit:4;stroke-dasharray:none;stroke-opacity:1"
       d="m 246.1904,691.1692 0,81.31728"
       id="path4163"
       inkscape:connector-curvature="0" />
    <path
       style="fill:none;fill-rule:evenodd;stroke:#002859;stroke-width:3;stroke-linecap:butt;stroke-linejoin:miter;stroke-miterlimit:4;stroke-dasharray:none;stroke-opacity:1"
       d="m 111.77032,594.69963 0,-21.97082"
       id="path4165"
       inkscape:connector-curvature="0" />
    <path
       inkscape:connector-curvature="0"
       id="path4167"
       d="m 470.1904,691.1692 0,81.31728"
       style="fill:none;fill-rule:evenodd;stroke:#000000;stroke-width:3;stroke-linecap:butt;stroke-linejoin:miter;stroke-miterlimit:4;stroke-dasharray:none;stroke-opacity:1" />
    <path
       style="fill:none;fill-rule:evenodd;stroke:#51b200;stroke-width:2;stroke-linecap:butt;stroke-linejoin:miter;stroke-miterlimit:4;stroke-dasharray:none;stroke-opacity:1"
       d="m 169.64286,1012.1122 c -3.43132,-8.2143 -3.4164,-30.17857 2.5,-46.25 -3.44418,-38.07593 -2.22112,-55.48266 -1.07143,-73.21428 -1.74506,-26.14982 -0.88695,-49.69647 0,-73.21429 0,0 -4.73126,-26.6964 0.71428,-38.21429 2.2739,-4.80953 6.88561,-9.5426 12.14286,-10.35714 20.64223,-3.19824 76.42857,0.35714 76.42857,0.35714 36.0299,-4.56857 64.37946,-2.73685 92.5,-0.71428 26.54762,-0.11905 25.2553,-4.42503 86.20885,-0.1046 34.64286,-3.92008 62.71972,-2.64045 97.36258,-1.32397"
       id="path4169"
       inkscape:connector-curvature="0"
       sodipodi:nodetypes="ccccascccc" />
    <rect
       style="opacity:1;fill:#000000;fill-opacity:1;stroke:none;stroke-width:2;stroke-linecap:round;stroke-linejoin:miter;stroke-miterlimit:4;stroke-dasharray:none;stroke-dashoffset:0;stroke-opacity:1"
       id="rect4171"
       width="6.0609155"
       height="5.6821079"
       x="168.46513"
       y="963.76379" />
    <rect
       y="891.76379"
       x="168.46513"
       height="5.6821079"
       width="6.0609155"
       id="rect4173"
       style="opacity:1;fill:#000000;fill-opacity:1;stroke:none;stroke-width:2;stroke-linecap:round;stroke-linejoin:miter;stroke-miterlimit:4;stroke-dasharray:none;stroke-dashoffset:0;stroke-opacity:1" />
    <rect
       style="opacity:1;fill:#000000;fill-opacity:1;stroke:none;stroke-width:2;stroke-linecap:round;stroke-linejoin:miter;stroke-miterlimit:4;stroke-dasharray:none;stroke-dashoffset:0;stroke-opacity:1"
       id="rect4175"
       width="6.0609155"
       height="5.6821079"
       x="168.46513"
       y="815.76379" />
    <rect
       transform="matrix(0,-1,1,0,0,0)"
       style="opacity:1;fill:#000000;fill-opacity:1;stroke:none;stroke-width:2;stroke-linecap:round;stroke-linejoin:miter;stroke-miterlimit:4;stroke-dasharray:none;stroke-dashoffset:0;stroke-opacity:1"
       id="rect4179"
       width="6.0609155"
       height="5.6821079"
       x="-773.63531"
       y="346.65454" />
    <rect
       transform="matrix(0,-1,1,0,0,0)"
       style="opacity:1;fill:#000000;fill-opacity:1;stroke:none;stroke-width:2;stroke-linecap:round;stroke-linejoin:miter;stroke-miterlimit:4;stroke-dasharray:none;stroke-dashoffset:0;stroke-opacity:1"
       id="rect4183"
       width="6.0609155"
       height="5.6821079"
       x="-773.63531"
       y="526.65454" />
    <path
       style="fill:none;fill-rule:evenodd;stroke:#51b200;stroke-width:2;stroke-linecap:butt;stroke-linejoin:miter;stroke-miterlimit:4;stroke-dasharray:none;stroke-opacity:1"
       d="m 249.64286,747.64792 c -0.959,12.65759 0.2776,22.83318 10.17857,23.21428"
       id="path4185"
       inkscape:connector-curvature="0"
       sodipodi:nodetypes="cc" />
    <rect
       y="256.65454"
       x="-773.63531"
       height="5.6821079"
       width="6.0609155"
       id="rect4177"
       style="opacity:1;fill:#000000;fill-opacity:1;stroke:none;stroke-width:2;stroke-linecap:round;stroke-linejoin:miter;stroke-miterlimit:4;stroke-dasharray:none;stroke-dashoffset:0;stroke-opacity:1"
       transform="matrix(0,-1,1,0,0,0)" />
    <rect
       transform="matrix(0,-1,1,0,0,0)"
       style="opacity:1;fill:#000000;fill-opacity:1;stroke:none;stroke-width:2;stroke-linecap:round;stroke-linejoin:miter;stroke-miterlimit:4;stroke-dasharray:none;stroke-dashoffset:0;stroke-opacity:1"
       id="rect4187"
       width="6.0609155"
       height="5.6821079"
       x="-759.63531"
       y="244.65454" />
    <path
       style="fill:none;fill-rule:evenodd;stroke:#51b200;stroke-width:2;stroke-linecap:butt;stroke-linejoin:miter;stroke-miterlimit:4;stroke-dasharray:none;stroke-opacity:1"
       d="m 439.28572,771.39792 c 31.49565,0.48145 26.85513,-11.44206 27.85714,-21.42858"
       id="path4191"
       inkscape:connector-curvature="0"
       sodipodi:nodetypes="cc" />
    <rect
       transform="matrix(0,-1,1,0,0,0)"
       style="opacity:1;fill:#000000;fill-opacity:1;stroke:none;stroke-width:2;stroke-linecap:round;stroke-linejoin:miter;stroke-miterlimit:4;stroke-dasharray:none;stroke-dashoffset:0;stroke-opacity:1"
       id="rect4189"
       width="6.0609155"
       height="5.6821079"
       x="-759.63531"
       y="464.65454" />
    <rect
       y="436.65454"
       x="-773.63531"
       height="5.6821079"
       width="6.0609155"
       id="rect4181"
       style="opacity:1;fill:#000000;fill-opacity:1;stroke:none;stroke-width:2;stroke-linecap:round;stroke-linejoin:miter;stroke-miterlimit:4;stroke-dasharray:none;stroke-dashoffset:0;stroke-opacity:1"
       transform="matrix(0,-1,1,0,0,0)" />
    <path
       style="fill:none;fill-rule:evenodd;stroke:#000000;stroke-width:3;stroke-linecap:butt;stroke-linejoin:miter;stroke-miterlimit:4;stroke-dasharray:none;stroke-opacity:1"
       d="m 138.03428,1010.6299 0,20.7082"
       id="path4199"
       inkscape:connector-curvature="0" />
    <path
       style="fill:none;fill-rule:evenodd;stroke:#000000;stroke-width:3;stroke-linecap:butt;stroke-linejoin:miter;stroke-miterlimit:4;stroke-dasharray:none;stroke-opacity:1"
       d="m 125.53365,1031.5906 25.00127,0"
       id="path4201"
       inkscape:connector-curvature="0" />
    <path
       style="fill:none;fill-rule:evenodd;stroke:#000000;stroke-width:3;stroke-linecap:butt;stroke-linejoin:miter;stroke-miterlimit:4;stroke-dasharray:none;stroke-opacity:1"
       d="m 131.21576,1036.0732 13.63705,0"
       id="path4203"
       inkscape:connector-curvature="0" />
    <path
       style="fill:none;fill-rule:evenodd;stroke:#000000;stroke-width:3;stroke-linecap:butt;stroke-linejoin:miter;stroke-miterlimit:4;stroke-dasharray:none;stroke-opacity:1"
       d="m 135.25636,1040.5557 5.55584,0"
       id="path4205"
       inkscape:connector-curvature="0" />
    <g
       id="g4637">
      <path
         style="fill:none;fill-rule:evenodd;stroke:#000000;stroke-width:3;stroke-linecap:butt;stroke-linejoin:miter;stroke-miterlimit:4;stroke-dasharray:none;stroke-opacity:1"
         d="m 170.03428,1010.6299 0,20.7082"
         id="path4207"
         inkscape:connector-curvature="0" />
      <path
         style="fill:none;fill-rule:evenodd;stroke:#000000;stroke-width:3;stroke-linecap:butt;stroke-linejoin:miter;stroke-miterlimit:4;stroke-dasharray:none;stroke-opacity:1"
         d="m 157.53365,1031.5906 25.00127,0"
         id="path4209"
         inkscape:connector-curvature="0" />
      <path
         style="fill:none;fill-rule:evenodd;stroke:#000000;stroke-width:3;stroke-linecap:butt;stroke-linejoin:miter;stroke-miterlimit:4;stroke-dasharray:none;stroke-opacity:1"
         d="m 163.21576,1036.0732 13.63705,0"
         id="path4211"
         inkscape:connector-curvature="0" />
      <path
         style="fill:none;fill-rule:evenodd;stroke:#000000;stroke-width:3;stroke-linecap:butt;stroke-linejoin:miter;stroke-miterlimit:4;stroke-dasharray:none;stroke-opacity:1"
         d="m 167.25636,1040.5557 5.55584,0"
         id="path4213"
         inkscape:connector-curvature="0" />
    </g>
    <path
       style="opacity:1;fill:#eaeaea;fill-opacity:1;stroke:#000000;stroke-width:0.60000002;stroke-linecap:round;stroke-linejoin:miter;stroke-miterlimit:4;stroke-dasharray:none;stroke-dashoffset:0;stroke-opacity:1"
       d="m 175.1582,774.0021 0,239.4062 363.6543,0 0,-239.4062 -363.6543,0 z m 9.99024,8.71289 343.49609,0 0,107.53906 -343.49609,0 0,-107.53906 z m 0.13281,114.83007 81.23828,0 0,108.34764 -81.23828,0 0,-108.34764 z m 233.04102,0.0645 110.73437,0 0,108.21874 -110.73437,0 0,-108.21874 z m -144.74415,0.0566 137.61915,0 0,108.10544 -137.61915,0 0,-108.10544 z"
       id="rect4223"
       inkscape:connector-curvature="0" />
    <path
       sodipodi:nodetypes="ccccc"
       inkscape:connector-curvature="0"
       id="path4539"
       d="m 191.75949,811.13716 251.12921,0 0,196.24994 -251.12921,0 z"
       style="opacity:1;fill:none;fill-opacity:1;stroke:#d93011;stroke-width:10;stroke-linecap:round;stroke-linejoin:miter;stroke-miterlimit:4;stroke-dasharray:none;stroke-dashoffset:0;stroke-opacity:1;filter:url(#filter4549)"
       transform="matrix(0.54146107,0,0,0.54146107,170.51903,458.64956)" />
    <path
       style="fill:url(#linearGradient4238);fill-opacity:1;fill-rule:evenodd;stroke:#000000;stroke-width:0.30000001;stroke-linecap:butt;stroke-linejoin:miter;stroke-miterlimit:4;stroke-dasharray:none;stroke-opacity:1"
       d="m 665.99051,1009.7208 1.41422,-254.91199 15.19238,0 2.48528,254.91199 z"
       id="path4230"
       inkscape:connector-curvature="0"
       sodipodi:nodetypes="ccccc" />
    <g
       id="g4254"
       style="fill:#ffffff;fill-opacity:1"
       transform="translate(60,56)">
      <path
         inkscape:connector-curvature="0"
         id="path4246"
         d="m 479.375,748.1122 5.875,0 2.125,-2 0,-4.125"
         style="fill:none;fill-opacity:1;fill-rule:evenodd;stroke:#000000;stroke-width:1px;stroke-linecap:butt;stroke-linejoin:miter;stroke-opacity:1" />
      <path
         sodipodi:nodetypes="ccccccczc"
         inkscape:connector-curvature="0"
         id="path4248"
         transform="translate(0,308.26772)"
         d="m 485.74414,427.38086 c 0.54345,0.79233 0.44801,1.44124 -0.50781,1.90039 l 0,4.5625 2.31933,0 2.31934,0 0,-4.5625 c -0.95582,-0.45915 -1.05322,-1.10806 -0.50977,-1.90039 0,0 -1.18988,-0.42181 -1.80957,-0.42188 -0.61968,-7e-5 -1.81152,0.42188 -1.81152,0.42188 z"
         style="fill:#ffffff;fill-opacity:1;fill-rule:evenodd;stroke:#000000;stroke-width:0.30000001;stroke-linecap:butt;stroke-linejoin:miter;stroke-miterlimit:4;stroke-dasharray:none;stroke-opacity:1" />
    </g>
    <path
       style="fill:none;fill-rule:evenodd;stroke:#000000;stroke-width:2;stroke-linecap:butt;stroke-linejoin:miter;stroke-miterlimit:4;stroke-dasharray:none;stroke-opacity:1"
       d="m 547.25,792.7372 c 52.56264,0.18065 80.74265,-15.89379 111.5,-30.25 8.81072,1.18508 15.61115,3.78919 32,-0.375 9.10719,3.47385 18.57905,6.78195 29.49522,9.43354"
       id="path4270"
       inkscape:connector-curvature="0"
       sodipodi:nodetypes="cccc" />
    <g
       id="g4258"
       transform="matrix(-1,0,0,1,1146.516,26)">
      <path
         style="fill:none;fill-rule:evenodd;stroke:#000000;stroke-width:1px;stroke-linecap:butt;stroke-linejoin:miter;stroke-opacity:1"
         d="m 479.375,748.1122 5.875,0 2.125,-2 0,-4.125"
         id="path4260"
         inkscape:connector-curvature="0" />
      <path
         style="fill:#ffffff;fill-opacity:1;fill-rule:evenodd;stroke:#000000;stroke-width:0.30000001;stroke-linecap:butt;stroke-linejoin:miter;stroke-miterlimit:4;stroke-dasharray:none;stroke-opacity:1"
         d="m 485.74414,427.38086 c 0.54345,0.79233 0.44801,1.44124 -0.50781,1.90039 l 0,4.5625 2.31933,0 2.31934,0 0,-4.5625 c -0.95582,-0.45915 -1.05322,-1.10806 -0.50977,-1.90039 0,0 -1.18988,-0.42181 -1.80957,-0.42188 -0.61968,-7e-5 -1.81152,0.42188 -1.81152,0.42188 z"
         transform="translate(0,308.26772)"
         id="path4262"
         inkscape:connector-curvature="0"
         sodipodi:nodetypes="ccccccczc" />
    </g>
    <g
       transform="translate(203.3482,26)"
       id="g4264">
      <path
         inkscape:connector-curvature="0"
         id="path4266"
         d="m 479.375,748.1122 5.875,0 2.125,-2 0,-4.125"
         style="fill:none;fill-rule:evenodd;stroke:#000000;stroke-width:1px;stroke-linecap:butt;stroke-linejoin:miter;stroke-opacity:1" />
      <path
         sodipodi:nodetypes="ccccccczc"
         inkscape:connector-curvature="0"
         id="path4268"
         transform="translate(0,308.26772)"
         d="m 485.74414,427.38086 c 0.54345,0.79233 0.44801,1.44124 -0.50781,1.90039 l 0,4.5625 2.31933,0 2.31934,0 0,-4.5625 c -0.95582,-0.45915 -1.05322,-1.10806 -0.50977,-1.90039 0,0 -1.18988,-0.42181 -1.80957,-0.42188 -0.61968,-7e-5 -1.81152,0.42188 -1.81152,0.42188 z"
         style="fill:#ffffff;fill-opacity:1;fill-rule:evenodd;stroke:#000000;stroke-width:0.30000001;stroke-linecap:butt;stroke-linejoin:miter;stroke-miterlimit:4;stroke-dasharray:none;stroke-opacity:1" />
    </g>
    <path
       style="fill:none;fill-rule:evenodd;stroke:#000000;stroke-width:2;stroke-linecap:butt;stroke-linejoin:miter;stroke-miterlimit:4;stroke-dasharray:none;stroke-opacity:1"
       d="m 547.5,792.75683 -26.25,0 0,6.35537"
       id="path4274"
       inkscape:connector-curvature="0"
       sodipodi:nodetypes="ccc" />
    <path
       style="fill:none;fill-rule:evenodd;stroke:#000000;stroke-width:2;stroke-linecap:butt;stroke-linejoin:miter;stroke-miterlimit:4;stroke-dasharray:none;stroke-opacity:1"
       d="m 521.5,828.83187 0,73.78033 -99.53899,0 0,12"
       id="path4276"
       inkscape:connector-curvature="0"
       sodipodi:nodetypes="cccc" />
    <g
       id="g4290"
       transform="translate(60,56)">
      <rect
         y="742.86218"
         x="453.75"
         height="30"
         width="14.75"
         id="rect4272"
         style="opacity:1;fill:#e6ed00;fill-opacity:1;stroke:#000000;stroke-width:0.30000001;stroke-linecap:round;stroke-linejoin:miter;stroke-miterlimit:4;stroke-dasharray:none;stroke-dashoffset:0;stroke-opacity:1" />
      <rect
         y="751.33496"
         x="460.9744"
         height="12.14004"
         width="3.643646"
         id="rect4278"
         style="opacity:1;fill:#e6ed00;fill-opacity:1;stroke:#000000;stroke-width:0.60000002;stroke-linecap:round;stroke-linejoin:miter;stroke-miterlimit:4;stroke-dasharray:none;stroke-dashoffset:0;stroke-opacity:1" />
      <path
         inkscape:connector-curvature="0"
         id="path4280"
         d="m 462.79588,747.14847 0,4.01063"
         style="fill:none;fill-rule:evenodd;stroke:#000000;stroke-width:0.60000002;stroke-linecap:butt;stroke-linejoin:miter;stroke-miterlimit:4;stroke-dasharray:none;stroke-opacity:1" />
      <path
         style="fill:none;fill-rule:evenodd;stroke:#000000;stroke-width:0.60000002;stroke-linecap:butt;stroke-linejoin:miter;stroke-miterlimit:4;stroke-dasharray:none;stroke-opacity:1"
         d="m 462.79588,763.30078 0,4.01063"
         id="path4282"
         inkscape:connector-curvature="0" />
      <path
         inkscape:connector-curvature="0"
         id="path4284"
         d="m 466.29884,753.74823 -7.46281,7.46281 -2.89375,0"
         style="fill:none;fill-rule:evenodd;stroke:#000000;stroke-width:0.2;stroke-linecap:butt;stroke-linejoin:miter;stroke-miterlimit:4;stroke-dasharray:none;stroke-opacity:1" />
      <text
         sodipodi:linespacing="125%"
         id="text4286"
         y="765.2724"
         x="455.84067"
         style="font-style:normal;font-weight:normal;font-size:10px;line-height:125%;font-family:sans-serif;letter-spacing:0px;word-spacing:0px;fill:#000000;fill-opacity:1;stroke:none;stroke-width:1px;stroke-linecap:butt;stroke-linejoin:miter;stroke-opacity:1"
         xml:space="preserve"><tspan
           style="font-size:3.75px"
           y="765.2724"
           x="455.84067"
           id="tspan4288"
           sodipodi:role="line">U</tspan></text>
    </g>
    <g
       id="g4299"
       transform="translate(-45.492024,171.74972)">
      <rect
         style="opacity:1;fill:#e6ed00;fill-opacity:1;stroke:#000000;stroke-width:0.30000001;stroke-linecap:round;stroke-linejoin:miter;stroke-miterlimit:4;stroke-dasharray:none;stroke-dashoffset:0;stroke-opacity:1"
         id="rect4301"
         width="14.75"
         height="30"
         x="453.75"
         y="742.86218" />
      <rect
         style="opacity:1;fill:#e6ed00;fill-opacity:1;stroke:#000000;stroke-width:0.60000002;stroke-linecap:round;stroke-linejoin:miter;stroke-miterlimit:4;stroke-dasharray:none;stroke-dashoffset:0;stroke-opacity:1"
         id="rect4303"
         width="3.643646"
         height="12.14004"
         x="460.9744"
         y="751.33496" />
      <path
         style="fill:none;fill-rule:evenodd;stroke:#000000;stroke-width:0.60000002;stroke-linecap:butt;stroke-linejoin:miter;stroke-miterlimit:4;stroke-dasharray:none;stroke-opacity:1"
         d="m 462.79588,747.14847 0,4.01063"
         id="path4305"
         inkscape:connector-curvature="0" />
      <path
         inkscape:connector-curvature="0"
         id="path4307"
         d="m 462.79588,763.30078 0,4.01063"
         style="fill:none;fill-rule:evenodd;stroke:#000000;stroke-width:0.60000002;stroke-linecap:butt;stroke-linejoin:miter;stroke-miterlimit:4;stroke-dasharray:none;stroke-opacity:1" />
      <path
         style="fill:none;fill-rule:evenodd;stroke:#000000;stroke-width:0.2;stroke-linecap:butt;stroke-linejoin:miter;stroke-miterlimit:4;stroke-dasharray:none;stroke-opacity:1"
         d="m 466.29884,753.74823 -7.46281,7.46281 -2.89375,0"
         id="path4309"
         inkscape:connector-curvature="0" />
      <text
         xml:space="preserve"
         style="font-style:normal;font-weight:normal;font-size:10px;line-height:125%;font-family:sans-serif;letter-spacing:0px;word-spacing:0px;fill:#000000;fill-opacity:1;stroke:none;stroke-width:1px;stroke-linecap:butt;stroke-linejoin:miter;stroke-opacity:1"
         x="455.84067"
         y="765.2724"
         id="text4311"
         sodipodi:linespacing="125%"><tspan
           sodipodi:role="line"
           id="tspan4313"
           x="455.84067"
           y="765.2724"
           style="font-size:3.75px">U</tspan></text>
    </g>
    <path
       transform="matrix(0.54146107,0,0,0.54146107,170.51903,458.64956)"
       style="opacity:1;fill:none;fill-opacity:1;stroke:#d9cf11;stroke-width:10;stroke-linecap:round;stroke-linejoin:miter;stroke-miterlimit:4;stroke-dasharray:none;stroke-dashoffset:0;stroke-opacity:1;filter:url(#filter4689)"
       d="m 213.92175,844.38055 92.29969,0 0,161.61975 -92.29969,0 z"
       id="path4553"
       inkscape:connector-curvature="0"
       sodipodi:nodetypes="ccccc" />
    <path
       style="fill:none;fill-rule:evenodd;stroke:#000000;stroke-width:2;stroke-linecap:butt;stroke-linejoin:miter;stroke-miterlimit:4;stroke-dasharray:none;stroke-opacity:1"
       d="m 409.09946,944.95456 0,54.27776 -69.23875,0 0,-46.3802"
       id="path4350"
       inkscape:connector-curvature="0"
       sodipodi:nodetypes="cccc" />
    <g
       id="g4555">
      <path
         inkscape:connector-curvature="0"
         id="rect4228"
         d="m 291,920.60121 0,82.49989 41,0 0,-82.49989 -41,0 z m 3.06055,4.25586 34.8789,0 0,36.0293 -34.8789,0 0,-36.0293 z"
         style="opacity:1;fill:#999999;fill-opacity:1;stroke:#000000;stroke-width:0.60000002;stroke-linecap:round;stroke-linejoin:miter;stroke-miterlimit:4;stroke-dasharray:none;stroke-dashoffset:0;stroke-opacity:1" />
      <rect
         style="opacity:1;fill:none;fill-opacity:1;stroke:#000000;stroke-width:0.60000002;stroke-linecap:round;stroke-linejoin:miter;stroke-miterlimit:4;stroke-dasharray:none;stroke-dashoffset:0;stroke-opacity:1"
         id="rect4333"
         width="34.884121"
         height="34.884117"
         x="294.05792"
         y="964.84552" />
      <path
         sodipodi:nodetypes="ccccc"
         inkscape:connector-curvature="0"
         id="path4336"
         d="m 294.01898,924.99531 -11.30786,11.05658 0,35.61081 11.30786,-11.55915 z"
         style="fill:#999999;fill-opacity:1;fill-rule:evenodd;stroke:#000000;stroke-width:0.60000002;stroke-linecap:butt;stroke-linejoin:miter;stroke-miterlimit:4;stroke-dasharray:none;stroke-opacity:1" />
      <g
         transform="translate(60,48.8204)"
         id="g4342">
        <path
           style="fill:#e6ed00;fill-opacity:1;fill-rule:evenodd;stroke:#000000;stroke-width:1px;stroke-linecap:butt;stroke-linejoin:miter;stroke-opacity:1"
           d="m 252.14842,922.16785 -7.00109,12.43882 14.00217,0 z"
           id="path4338"
           inkscape:connector-curvature="0"
           sodipodi:nodetypes="cccc" />
        <path
           style="fill:#000000;fill-opacity:1;fill-rule:evenodd;stroke:none;stroke-width:1px;stroke-linecap:butt;stroke-linejoin:miter;stroke-opacity:1"
           d="m 252.1853,927.73205 -1.25643,2.44106 1.31733,0.13346 -0.99425,1.69734 -0.53959,0.017 0.41883,0.96458 1.04073,-0.95189 -0.55844,0 1.59918,-2.19569 -1.4088,-0.11424 1.0788,-2.00531 z"
           id="path4340"
           inkscape:connector-curvature="0"
           sodipodi:nodetypes="cccccccccccc" />
      </g>
      <path
         inkscape:connector-curvature="0"
         id="path4346"
         d="m 325.36131,970.30397 0,4.31523"
         style="fill:none;fill-rule:evenodd;stroke:#000000;stroke-width:1px;stroke-linecap:butt;stroke-linejoin:miter;stroke-opacity:1" />
      <path
         style="fill:none;fill-rule:evenodd;stroke:#000000;stroke-width:1px;stroke-linecap:butt;stroke-linejoin:miter;stroke-opacity:1"
         d="m 325.36131,990.30397 0,4.31518"
         id="path4348"
         inkscape:connector-curvature="0" />
      <g
         transform="translate(60,52.04919)"
         id="g4377">
        <rect
           style="opacity:1;fill:#07617f;fill-opacity:1;stroke:#000000;stroke-width:0.30000001;stroke-linecap:round;stroke-linejoin:miter;stroke-miterlimit:4;stroke-dasharray:none;stroke-dashoffset:0;stroke-opacity:1"
           id="rect4352"
           width="30.866592"
           height="6.5489974"
           x="235.71313"
           y="875.79309"
           ry="1.1168833" />
        <path
           id="path4362"
           style="fill:none;fill-rule:evenodd;stroke:#000000;stroke-width:0.2;stroke-linecap:butt;stroke-linejoin:miter;stroke-miterlimit:4;stroke-dasharray:none;stroke-opacity:1"
           d="m 251.59871,880.93439 5.09751,0 m -5.09751,-0.9334 5.09751,0 m -5.09751,-0.9334 5.09751,0 m -5.09751,-0.93341 5.09751,0 m -5.09751,-0.93339 5.09751,0"
           inkscape:connector-curvature="0" />
        <path
           inkscape:connector-curvature="0"
           d="m 257.59871,880.93439 7.35908,0 m -7.35908,-0.9334 7.35908,0 m -7.35908,-0.9334 7.35908,0 m -7.35908,-0.93341 7.35908,0 m -7.35908,-0.93339 7.35908,0"
           style="fill:none;fill-rule:evenodd;stroke:#000000;stroke-width:0.2;stroke-linecap:butt;stroke-linejoin:miter;stroke-miterlimit:4;stroke-dasharray:none;stroke-opacity:1"
           id="path4367"
           sodipodi:nodetypes="cccccccccc" />
        <path
           id="path4369"
           style="fill:none;fill-rule:evenodd;stroke:#000000;stroke-width:0.2;stroke-linecap:butt;stroke-linejoin:miter;stroke-miterlimit:4;stroke-dasharray:none;stroke-opacity:1"
           d="m 237.59871,880.93439 13.09751,0 m -13.09751,-0.9334 13.09751,0 m -13.09751,-0.9334 13.09751,0 m -13.09751,-0.93341 5.12033,0 m -5.12033,-0.93339 13.09751,0"
           inkscape:connector-curvature="0"
           sodipodi:nodetypes="cccccccccc" />
        <rect
           style="opacity:1;fill:#00ad12;fill-opacity:1;stroke:none;stroke-width:0.2;stroke-linecap:round;stroke-linejoin:miter;stroke-miterlimit:4;stroke-dasharray:none;stroke-dashoffset:0;stroke-opacity:1"
           id="rect4371"
           width="1.1549588"
           height="0.4569068"
           x="243.68362"
           y="877.86188" />
        <rect
           y="877.86188"
           x="245.68362"
           height="0.4569068"
           width="1.1549588"
           id="rect4373"
           style="opacity:1;fill:#ad2000;fill-opacity:1;stroke:none;stroke-width:0.2;stroke-linecap:round;stroke-linejoin:miter;stroke-miterlimit:4;stroke-dasharray:none;stroke-dashoffset:0;stroke-opacity:1" />
        <rect
           style="opacity:1;fill:#0020ad;fill-opacity:1;stroke:none;stroke-width:0.2;stroke-linecap:round;stroke-linejoin:miter;stroke-miterlimit:4;stroke-dasharray:none;stroke-dashoffset:0;stroke-opacity:1"
           id="rect4375"
           width="1.1549588"
           height="0.4569068"
           x="247.68362"
           y="877.86188" />
      </g>
      <g
         transform="translate(60,59.746294)"
         id="g4386">
        <rect
           ry="1.1168833"
           y="875.79309"
           x="235.71313"
           height="6.5489974"
           width="30.866592"
           id="rect4388"
           style="opacity:1;fill:#07617f;fill-opacity:1;stroke:#000000;stroke-width:0.30000001;stroke-linecap:round;stroke-linejoin:miter;stroke-miterlimit:4;stroke-dasharray:none;stroke-dashoffset:0;stroke-opacity:1" />
        <path
           inkscape:connector-curvature="0"
           d="m 251.59871,880.93439 5.09751,0 m -5.09751,-0.9334 5.09751,0 m -5.09751,-0.9334 5.09751,0 m -5.09751,-0.93341 5.09751,0 m -5.09751,-0.93339 5.09751,0"
           style="fill:none;fill-rule:evenodd;stroke:#000000;stroke-width:0.2;stroke-linecap:butt;stroke-linejoin:miter;stroke-miterlimit:4;stroke-dasharray:none;stroke-opacity:1"
           id="path4390" />
        <path
           sodipodi:nodetypes="cccccccccc"
           id="path4392"
           style="fill:none;fill-rule:evenodd;stroke:#000000;stroke-width:0.2;stroke-linecap:butt;stroke-linejoin:miter;stroke-miterlimit:4;stroke-dasharray:none;stroke-opacity:1"
           d="m 257.59871,880.93439 7.35908,0 m -7.35908,-0.9334 7.35908,0 m -7.35908,-0.9334 7.35908,0 m -7.35908,-0.93341 7.35908,0 m -7.35908,-0.93339 7.35908,0"
           inkscape:connector-curvature="0" />
        <path
           sodipodi:nodetypes="cccccccccc"
           inkscape:connector-curvature="0"
           d="m 237.59871,880.93439 13.09751,0 m -13.09751,-0.9334 13.09751,0 m -13.09751,-0.9334 13.09751,0 m -13.09751,-0.93341 5.12033,0 m -5.12033,-0.93339 13.09751,0"
           style="fill:none;fill-rule:evenodd;stroke:#000000;stroke-width:0.2;stroke-linecap:butt;stroke-linejoin:miter;stroke-miterlimit:4;stroke-dasharray:none;stroke-opacity:1"
           id="path4394" />
        <rect
           y="877.86188"
           x="243.68362"
           height="0.4569068"
           width="1.1549588"
           id="rect4396"
           style="opacity:1;fill:#00ad12;fill-opacity:1;stroke:none;stroke-width:0.2;stroke-linecap:round;stroke-linejoin:miter;stroke-miterlimit:4;stroke-dasharray:none;stroke-dashoffset:0;stroke-opacity:1" />
        <rect
           style="opacity:1;fill:#ad2000;fill-opacity:1;stroke:none;stroke-width:0.2;stroke-linecap:round;stroke-linejoin:miter;stroke-miterlimit:4;stroke-dasharray:none;stroke-dashoffset:0;stroke-opacity:1"
           id="rect4398"
           width="1.1549588"
           height="0.4569068"
           x="245.68362"
           y="877.86188" />
        <rect
           y="877.86188"
           x="247.68362"
           height="0.4569068"
           width="1.1549588"
           id="rect4400"
           style="opacity:1;fill:#0020ad;fill-opacity:1;stroke:none;stroke-width:0.2;stroke-linecap:round;stroke-linejoin:miter;stroke-miterlimit:4;stroke-dasharray:none;stroke-dashoffset:0;stroke-opacity:1" />
      </g>
      <g
         id="g4402"
         transform="translate(60,67.44338)">
        <rect
           style="opacity:1;fill:#07617f;fill-opacity:1;stroke:#000000;stroke-width:0.30000001;stroke-linecap:round;stroke-linejoin:miter;stroke-miterlimit:4;stroke-dasharray:none;stroke-dashoffset:0;stroke-opacity:1"
           id="rect4404"
           width="30.866592"
           height="6.5489974"
           x="235.71313"
           y="875.79309"
           ry="1.1168833" />
        <path
           id="path4406"
           style="fill:none;fill-rule:evenodd;stroke:#000000;stroke-width:0.2;stroke-linecap:butt;stroke-linejoin:miter;stroke-miterlimit:4;stroke-dasharray:none;stroke-opacity:1"
           d="m 251.59871,880.93439 5.09751,0 m -5.09751,-0.9334 5.09751,0 m -5.09751,-0.9334 5.09751,0 m -5.09751,-0.93341 5.09751,0 m -5.09751,-0.93339 5.09751,0"
           inkscape:connector-curvature="0" />
        <path
           inkscape:connector-curvature="0"
           d="m 257.59871,880.93439 7.35908,0 m -7.35908,-0.9334 7.35908,0 m -7.35908,-0.9334 7.35908,0 m -7.35908,-0.93341 7.35908,0 m -7.35908,-0.93339 7.35908,0"
           style="fill:none;fill-rule:evenodd;stroke:#000000;stroke-width:0.2;stroke-linecap:butt;stroke-linejoin:miter;stroke-miterlimit:4;stroke-dasharray:none;stroke-opacity:1"
           id="path4408"
           sodipodi:nodetypes="cccccccccc" />
        <path
           id="path4410"
           style="fill:none;fill-rule:evenodd;stroke:#000000;stroke-width:0.2;stroke-linecap:butt;stroke-linejoin:miter;stroke-miterlimit:4;stroke-dasharray:none;stroke-opacity:1"
           d="m 237.59871,880.93439 13.09751,0 m -13.09751,-0.9334 13.09751,0 m -13.09751,-0.9334 13.09751,0 m -13.09751,-0.93341 5.12033,0 m -5.12033,-0.93339 13.09751,0"
           inkscape:connector-curvature="0"
           sodipodi:nodetypes="cccccccccc" />
        <rect
           style="opacity:1;fill:#00ad12;fill-opacity:1;stroke:none;stroke-width:0.2;stroke-linecap:round;stroke-linejoin:miter;stroke-miterlimit:4;stroke-dasharray:none;stroke-dashoffset:0;stroke-opacity:1"
           id="rect4412"
           width="1.1549588"
           height="0.4569068"
           x="243.68362"
           y="877.86188" />
        <rect
           y="877.86188"
           x="245.68362"
           height="0.4569068"
           width="1.1549588"
           id="rect4414"
           style="opacity:1;fill:#ad2000;fill-opacity:1;stroke:none;stroke-width:0.2;stroke-linecap:round;stroke-linejoin:miter;stroke-miterlimit:4;stroke-dasharray:none;stroke-dashoffset:0;stroke-opacity:1" />
        <rect
           style="opacity:1;fill:#0020ad;fill-opacity:1;stroke:none;stroke-width:0.2;stroke-linecap:round;stroke-linejoin:miter;stroke-miterlimit:4;stroke-dasharray:none;stroke-dashoffset:0;stroke-opacity:1"
           id="rect4416"
           width="1.1549588"
           height="0.4569068"
           x="247.68362"
           y="877.86188" />
      </g>
      <g
         transform="translate(60,75.140478)"
         id="g4418">
        <rect
           ry="1.1168833"
           y="875.79309"
           x="235.71313"
           height="6.5489974"
           width="30.866592"
           id="rect4420"
           style="opacity:1;fill:#07617f;fill-opacity:1;stroke:#000000;stroke-width:0.30000001;stroke-linecap:round;stroke-linejoin:miter;stroke-miterlimit:4;stroke-dasharray:none;stroke-dashoffset:0;stroke-opacity:1" />
        <path
           inkscape:connector-curvature="0"
           d="m 251.59871,880.93439 5.09751,0 m -5.09751,-0.9334 5.09751,0 m -5.09751,-0.9334 5.09751,0 m -5.09751,-0.93341 5.09751,0 m -5.09751,-0.93339 5.09751,0"
           style="fill:none;fill-rule:evenodd;stroke:#000000;stroke-width:0.2;stroke-linecap:butt;stroke-linejoin:miter;stroke-miterlimit:4;stroke-dasharray:none;stroke-opacity:1"
           id="path4422" />
        <path
           sodipodi:nodetypes="cccccccccc"
           id="path4424"
           style="fill:none;fill-rule:evenodd;stroke:#000000;stroke-width:0.2;stroke-linecap:butt;stroke-linejoin:miter;stroke-miterlimit:4;stroke-dasharray:none;stroke-opacity:1"
           d="m 257.59871,880.93439 7.35908,0 m -7.35908,-0.9334 7.35908,0 m -7.35908,-0.9334 7.35908,0 m -7.35908,-0.93341 7.35908,0 m -7.35908,-0.93339 7.35908,0"
           inkscape:connector-curvature="0" />
        <path
           sodipodi:nodetypes="cccccccccc"
           inkscape:connector-curvature="0"
           d="m 237.59871,880.93439 13.09751,0 m -13.09751,-0.9334 13.09751,0 m -13.09751,-0.9334 13.09751,0 m -13.09751,-0.93341 5.12033,0 m -5.12033,-0.93339 13.09751,0"
           style="fill:none;fill-rule:evenodd;stroke:#000000;stroke-width:0.2;stroke-linecap:butt;stroke-linejoin:miter;stroke-miterlimit:4;stroke-dasharray:none;stroke-opacity:1"
           id="path4426" />
        <rect
           y="877.86188"
           x="243.68362"
           height="0.4569068"
           width="1.1549588"
           id="rect4428"
           style="opacity:1;fill:#00ad12;fill-opacity:1;stroke:none;stroke-width:0.2;stroke-linecap:round;stroke-linejoin:miter;stroke-miterlimit:4;stroke-dasharray:none;stroke-dashoffset:0;stroke-opacity:1" />
        <rect
           style="opacity:1;fill:#ad2000;fill-opacity:1;stroke:none;stroke-width:0.2;stroke-linecap:round;stroke-linejoin:miter;stroke-miterlimit:4;stroke-dasharray:none;stroke-dashoffset:0;stroke-opacity:1"
           id="rect4430"
           width="1.1549588"
           height="0.4569068"
           x="245.68362"
           y="877.86188" />
        <rect
           y="877.86188"
           x="247.68362"
           height="0.4569068"
           width="1.1549588"
           id="rect4432"
           style="opacity:1;fill:#0020ad;fill-opacity:1;stroke:none;stroke-width:0.2;stroke-linecap:round;stroke-linejoin:miter;stroke-miterlimit:4;stroke-dasharray:none;stroke-dashoffset:0;stroke-opacity:1" />
      </g>
    </g>
    <g
       transform="translate(-120.52895,180.07558)"
       id="g4315">
      <rect
         y="742.86218"
         x="453.75"
         height="30"
         width="14.75"
         id="rect4317"
         style="opacity:1;fill:#e6ed00;fill-opacity:1;stroke:#000000;stroke-width:0.30000001;stroke-linecap:round;stroke-linejoin:miter;stroke-miterlimit:4;stroke-dasharray:none;stroke-dashoffset:0;stroke-opacity:1" />
      <rect
         y="751.33496"
         x="460.9744"
         height="12.14004"
         width="3.643646"
         id="rect4319"
         style="opacity:1;fill:#e6ed00;fill-opacity:1;stroke:#000000;stroke-width:0.60000002;stroke-linecap:round;stroke-linejoin:miter;stroke-miterlimit:4;stroke-dasharray:none;stroke-dashoffset:0;stroke-opacity:1" />
      <path
         inkscape:connector-curvature="0"
         id="path4321"
         d="m 462.79588,747.14847 0,4.01063"
         style="fill:none;fill-rule:evenodd;stroke:#000000;stroke-width:0.60000002;stroke-linecap:butt;stroke-linejoin:miter;stroke-miterlimit:4;stroke-dasharray:none;stroke-opacity:1" />
      <path
         style="fill:none;fill-rule:evenodd;stroke:#000000;stroke-width:0.60000002;stroke-linecap:butt;stroke-linejoin:miter;stroke-miterlimit:4;stroke-dasharray:none;stroke-opacity:1"
         d="m 462.79588,763.30078 0,4.01063"
         id="path4323"
         inkscape:connector-curvature="0" />
      <path
         inkscape:connector-curvature="0"
         id="path4325"
         d="m 466.29884,753.74823 -7.46281,7.46281 -2.89375,0"
         style="fill:none;fill-rule:evenodd;stroke:#000000;stroke-width:0.2;stroke-linecap:butt;stroke-linejoin:miter;stroke-miterlimit:4;stroke-dasharray:none;stroke-opacity:1" />
      <text
         sodipodi:linespacing="125%"
         id="text4327"
         y="765.2724"
         x="455.84067"
         style="font-style:normal;font-weight:normal;font-size:10px;line-height:125%;font-family:sans-serif;letter-spacing:0px;word-spacing:0px;fill:#000000;fill-opacity:1;stroke:none;stroke-width:1px;stroke-linecap:butt;stroke-linejoin:miter;stroke-opacity:1"
         xml:space="preserve"><tspan
           style="font-size:3.75px"
           y="765.2724"
           x="455.84067"
           id="tspan4329"
           sodipodi:role="line">U</tspan></text>
    </g>
    <text
       xml:space="preserve"
       style="font-style:normal;font-weight:normal;font-size:10px;line-height:125%;font-family:sans-serif;letter-spacing:0px;word-spacing:0px;fill:#000000;fill-opacity:1;stroke:none;stroke-width:1px;stroke-linecap:butt;stroke-linejoin:miter;stroke-opacity:1"
       x="509.59656"
       y="811.12787"
       id="text4613"
       sodipodi:linespacing="125%"><tspan
         sodipodi:role="line"
         id="tspan4615"
         x="509.59656"
         y="811.12787"
         style="font-style:normal;font-variant:normal;font-weight:normal;font-stretch:normal;font-family:'Liberation Serif';-inkscape-font-specification:'Liberation Serif';text-align:end;text-anchor:end">УЗИП</tspan><tspan
         sodipodi:role="line"
         x="509.59656"
         y="821.20618"
         id="tspan4617"
         style="font-style:normal;font-variant:normal;font-weight:normal;font-stretch:normal;font-size:7.5px;font-family:'Liberation Serif';-inkscape-font-specification:'Liberation Serif';text-align:end;text-anchor:end">LPZ 0→LPZ 1</tspan></text>
    <text
       sodipodi:linespacing="125%"
       id="text4619"
       y="928.26617"
       x="428.4071"
       style="font-style:normal;font-weight:normal;font-size:10px;line-height:125%;font-family:sans-serif;text-align:start;letter-spacing:0px;word-spacing:0px;text-anchor:start;fill:#000000;fill-opacity:1;stroke:none;stroke-width:1px;stroke-linecap:butt;stroke-linejoin:miter;stroke-opacity:1"
       xml:space="preserve"><tspan
         style="font-style:normal;font-variant:normal;font-weight:normal;font-stretch:normal;font-family:'Liberation Serif';-inkscape-font-specification:'Liberation Serif';text-align:start;text-anchor:start"
         y="928.26617"
         x="428.4071"
         id="tspan4621"
         sodipodi:role="line">УЗИП</tspan><tspan
         style="font-style:normal;font-variant:normal;font-weight:normal;font-stretch:normal;font-size:7.5px;font-family:'Liberation Serif';-inkscape-font-specification:'Liberation Serif';text-align:start;text-anchor:start"
         id="tspan4623"
         y="938.34448"
         x="428.4071"
         sodipodi:role="line">LPZ 1→LPZ 2</tspan></text>
    <text
       xml:space="preserve"
       style="font-style:normal;font-weight:normal;font-size:10px;line-height:125%;font-family:sans-serif;text-align:start;letter-spacing:0px;word-spacing:0px;text-anchor:start;fill:#000000;fill-opacity:1;stroke:none;stroke-width:1px;stroke-linecap:butt;stroke-linejoin:miter;stroke-opacity:1"
       x="351.59656"
       y="936.46924"
       id="text4625"
       sodipodi:linespacing="125%"><tspan
         sodipodi:role="line"
         id="tspan4627"
         x="351.59656"
         y="936.46924"
         style="font-style:normal;font-variant:normal;font-weight:normal;font-stretch:normal;font-family:'Liberation Serif';-inkscape-font-specification:'Liberation Serif';text-align:start;text-anchor:start">УЗИП</tspan><tspan
         sodipodi:role="line"
         x="351.59656"
         y="946.54755"
         id="tspan4629"
         style="font-style:normal;font-variant:normal;font-weight:normal;font-stretch:normal;font-size:7.5px;font-family:'Liberation Serif';-inkscape-font-specification:'Liberation Serif';text-align:start;text-anchor:start">LPZ 2→LPZ 3</tspan></text>
    <text
       xml:space="preserve"
       style="font-style:normal;font-weight:normal;font-size:10px;line-height:125%;font-family:sans-serif;letter-spacing:0px;word-spacing:0px;fill:#000000;fill-opacity:1;stroke:none;stroke-width:1px;stroke-linecap:butt;stroke-linejoin:miter;stroke-opacity:1"
       x="391.14447"
       y="943.66309"
       id="text4631"
       sodipodi:linespacing="125%"><tspan
         sodipodi:role="line"
         id="tspan4633"
         x="391.14447"
         y="943.66309" /></text>
    <path
       style="fill:none;fill-rule:evenodd;stroke:#51b200;stroke-width:2;stroke-linecap:butt;stroke-linejoin:miter;stroke-miterlimit:4;stroke-dasharray:none;stroke-opacity:1"
       d="m 528.88591,818.70188 3.36209,0 0,196.90472"
       id="path4635"
       inkscape:connector-curvature="0"
       sodipodi:nodetypes="ccc" />
    <g
       id="g4643"
       transform="translate(361.89745,0)">
      <path
         inkscape:connector-curvature="0"
         id="path4645"
         d="m 170.03428,1010.6299 0,20.7082"
         style="fill:none;fill-rule:evenodd;stroke:#000000;stroke-width:3;stroke-linecap:butt;stroke-linejoin:miter;stroke-miterlimit:4;stroke-dasharray:none;stroke-opacity:1" />
      <path
         inkscape:connector-curvature="0"
         id="path4647"
         d="m 157.53365,1031.5906 25.00127,0"
         style="fill:none;fill-rule:evenodd;stroke:#000000;stroke-width:3;stroke-linecap:butt;stroke-linejoin:miter;stroke-miterlimit:4;stroke-dasharray:none;stroke-opacity:1" />
      <path
         inkscape:connector-curvature="0"
         id="path4649"
         d="m 163.21576,1036.0732 13.63705,0"
         style="fill:none;fill-rule:evenodd;stroke:#000000;stroke-width:3;stroke-linecap:butt;stroke-linejoin:miter;stroke-miterlimit:4;stroke-dasharray:none;stroke-opacity:1" />
      <path
         inkscape:connector-curvature="0"
         id="path4651"
         d="m 167.25636,1040.5557 5.55584,0"
         style="fill:none;fill-rule:evenodd;stroke:#000000;stroke-width:3;stroke-linecap:butt;stroke-linejoin:miter;stroke-miterlimit:4;stroke-dasharray:none;stroke-opacity:1" />
    </g>
    <rect
       style="opacity:1;fill:#b32e95;fill-opacity:1;stroke:none;stroke-width:0;stroke-linecap:round;stroke-linejoin:miter;stroke-miterlimit:4;stroke-dasharray:none;stroke-dashoffset:0;stroke-opacity:1"
       id="rect4697"
       width="39.344193"
       height="19.384912"
       x="192.19409"
       y="790.06897" />
    <text
       xml:space="preserve"
       style="font-style:normal;font-weight:normal;font-size:10px;line-height:125%;font-family:sans-serif;letter-spacing:0px;word-spacing:0px;fill:#ffffff;fill-opacity:1;stroke:none;stroke-width:0.1;stroke-linecap:butt;stroke-linejoin:miter;stroke-miterlimit:4;stroke-dasharray:none;stroke-opacity:1;"
       x="196.93263"
       y="803.99744"
       id="text4693"
       sodipodi:linespacing="125%"><tspan
         sodipodi:role="line"
         id="tspan4695"
         x="196.93263"
         y="803.99744"
         style="font-style:normal;font-variant:normal;font-weight:normal;font-stretch:normal;font-size:12.5px;font-family:'Liberation Serif';-inkscape-font-specification:'Liberation Serif';fill:#ffffff;fill-opacity:1;stroke:none;stroke-width:0.1;stroke-miterlimit:4;stroke-dasharray:none;stroke-opacity:1;">LPZ 1</tspan></text>
    <text
       sodipodi:linespacing="125%"
       id="text4699"
       y="684.80969"
       x="321.60309"
       style="font-style:normal;font-weight:normal;font-size:10px;line-height:125%;font-family:sans-serif;letter-spacing:0px;word-spacing:0px;fill:#ffffff;fill-opacity:1;stroke:#000000;stroke-width:0.1;stroke-linecap:butt;stroke-linejoin:miter;stroke-miterlimit:4;stroke-dasharray:none;stroke-opacity:1"
       xml:space="preserve"><tspan
         style="font-style:normal;font-variant:normal;font-weight:normal;font-stretch:normal;font-size:12.5px;font-family:'Liberation Serif';-inkscape-font-specification:'Liberation Serif';fill:#000000;fill-opacity:1;stroke:none;stroke-width:0.1;stroke-miterlimit:4;stroke-dasharray:none;stroke-opacity:1"
         y="684.80969"
         x="321.60309"
         id="tspan4701"
         sodipodi:role="line">LPZ 0 A</tspan></text>
    <text
       xml:space="preserve"
       style="font-style:normal;font-weight:normal;font-size:10px;line-height:125%;font-family:sans-serif;letter-spacing:0px;word-spacing:0px;fill:#ffffff;fill-opacity:1;stroke:#000000;stroke-width:0.1;stroke-linecap:butt;stroke-linejoin:miter;stroke-miterlimit:4;stroke-dasharray:none;stroke-opacity:1"
       x="273.60309"
       y="710.80969"
       id="text4703"
       sodipodi:linespacing="125%"><tspan
         sodipodi:role="line"
         id="tspan4705"
         x="273.60309"
         y="710.80969"
         style="font-style:normal;font-variant:normal;font-weight:normal;font-stretch:normal;font-size:12.5px;font-family:'Liberation Serif';-inkscape-font-specification:'Liberation Serif';fill:#000000;fill-opacity:1;stroke:none;stroke-width:0.1;stroke-miterlimit:4;stroke-dasharray:none;stroke-opacity:1">LPZ 0 B</tspan></text>
    <rect
       y="900.85059"
       x="368.25537"
       height="19.384912"
       width="39.344193"
       id="rect4707"
       style="opacity:1;fill:#ce2e10;fill-opacity:1;stroke:none;stroke-width:0;stroke-linecap:round;stroke-linejoin:miter;stroke-miterlimit:4;stroke-dasharray:none;stroke-dashoffset:0;stroke-opacity:1" />
    <text
       sodipodi:linespacing="125%"
       id="text4709"
       y="914.77905"
       x="372.9939"
       style="font-style:normal;font-weight:normal;font-size:10px;line-height:125%;font-family:sans-serif;letter-spacing:0px;word-spacing:0px;fill:#ffffff;fill-opacity:1;stroke:none;stroke-width:0.1;stroke-linecap:butt;stroke-linejoin:miter;stroke-miterlimit:4;stroke-dasharray:none;stroke-opacity:1;"
       xml:space="preserve"><tspan
         style="font-style:normal;font-variant:normal;font-weight:normal;font-stretch:normal;font-size:12.5px;font-family:'Liberation Serif';-inkscape-font-specification:'Liberation Serif';fill:#ffffff;fill-opacity:1;stroke:none;stroke-width:0.1;stroke-miterlimit:4;stroke-dasharray:none;stroke-opacity:1;"
         y="914.77905"
         x="372.9939"
         id="tspan4711"
         sodipodi:role="line">LPZ 2</tspan></text>
    <rect
       style="opacity:1;fill:#ded52e;fill-opacity:1;stroke:none;stroke-width:0;stroke-linecap:round;stroke-linejoin:miter;stroke-miterlimit:4;stroke-dasharray:none;stroke-dashoffset:0;stroke-opacity:1"
       id="rect4713"
       width="30.409126"
       height="14.982599"
       x="288.05231"
       y="990.26819" />
    <text
       xml:space="preserve"
       style="font-style:normal;font-weight:normal;font-size:8.2895422px;line-height:125%;font-family:sans-serif;letter-spacing:0px;word-spacing:0px;fill:#000000;fill-opacity:1;stroke:none;stroke-width:0.08289542;stroke-linecap:butt;stroke-linejoin:miter;stroke-miterlimit:4;stroke-dasharray:none;stroke-opacity:1;"
       x="289.79782"
       y="1001.2454"
       id="text4715"
       sodipodi:linespacing="125%"><tspan
         sodipodi:role="line"
         id="tspan4717"
         x="289.79782"
         y="1001.2454"
         style="font-style:normal;font-variant:normal;font-weight:normal;font-stretch:normal;font-size:10.36192703px;font-family:'Liberation Serif';-inkscape-font-specification:'Liberation Serif';fill:#000000;fill-opacity:1;stroke:none;stroke-width:0.08289542;stroke-miterlimit:4;stroke-dasharray:none;stroke-opacity:1;">LPZ 3</tspan></text>
    <path
       style="opacity:1;fill:url(#linearGradient4305);fill-opacity:1;stroke:#000000;stroke-width:0.2;stroke-linecap:round;stroke-linejoin:miter;stroke-miterlimit:4;stroke-dasharray:none;stroke-dashoffset:0;stroke-opacity:1"
       d="m 667.99267,931.58582 c 3.6905,0.96075 12.00691,0.74332 15.14121,0 l 0,22.13459 c -3.28296,1.21262 -11.85825,1.48902 -15.14121,0 z"
       id="rect4288"
       inkscape:connector-curvature="0"
       sodipodi:nodetypes="ccccc" />
    <path
       style="fill:#000000;stroke-width:3.77952766"
       d="m 674.46482,935.57116 c 10e-4,0.008 -0.005,0.0168 -0.0173,0.0204 -0.11334,0.0364 -0.48619,0.24546 -0.61885,0.34701 -0.0364,0.028 -0.0816,0.0604 -0.10017,0.0721 -0.0473,0.0299 -0.0409,0.0727 0.0121,0.0777 0.03,0.003 0.0691,-0.0159 0.18685,-0.0897 0.25706,-0.16123 0.4984,-0.27879 0.80511,-0.39221 0.042,-0.0156 0.0733,-0.027 0.10917,-0.0355 z m 1.93097,0 c 0.003,0.009 -0.0241,0.0183 -0.0953,0.0329 -0.084,0.0173 -0.34408,0.093 -0.6094,0.17724 -0.24508,0.0779 -0.52593,0.18483 -1.00057,0.38132 -0.27976,0.11576 -0.75757,0.35527 -0.90356,0.45279 -0.10931,0.073 -0.23652,0.1891 -0.30363,0.27706 -0.0883,0.11576 -0.12342,0.22297 -0.13787,0.42145 -0.019,0.25969 -0.0762,0.44791 -0.18726,0.61628 -0.0303,0.0458 -0.0621,0.0971 -0.0708,0.11374 -0.0218,0.0415 -0.16626,0.18098 -0.24723,0.23863 -0.0907,0.0645 -0.18974,0.11348 -0.19911,0.0983 -0.009,-0.0151 0.0144,-0.0891 0.0442,-0.13797 0.0121,-0.02 0.0223,-0.0411 0.0223,-0.0468 7e-5,-0.0135 -0.0536,-0.004 -0.16874,0.0282 -0.10017,0.0282 -0.16096,0.0253 -0.24522,-0.0121 -0.0639,-0.028 -0.13785,-0.0921 -0.18328,-0.159 -0.0195,-0.0288 -0.039,-0.0551 -0.043,-0.0584 -0.004,-0.003 -0.0251,-0.0411 -0.0467,-0.0839 -0.10836,-0.21555 -0.16108,-0.42214 -0.17594,-0.69011 -0.008,-0.15313 -0.008,-0.15313 -0.0441,-0.16096 -0.0196,-0.004 -0.0406,-0.003 -0.0468,0.004 -0.007,0.007 -0.0171,0.0612 -0.0243,0.12221 -0.0265,0.22436 0.0356,0.55344 0.14038,0.74302 0.0573,0.10353 0.19628,0.28982 0.27285,0.36544 0.0403,0.0398 0.11213,0.0987 0.15944,0.13068 0.26202,0.1771 0.28836,0.21011 0.28993,0.36335 10e-4,0.105 10e-4,0.105 -0.055,0.10312 -0.0476,-10e-4 -0.0731,-0.0134 -0.16877,-0.0786 -0.14094,-0.0961 -0.17602,-0.11146 -0.21892,-0.0951 -0.0367,0.014 -0.044,0.0491 -0.0108,0.0491 0.0292,0 0.21889,0.16756 0.26003,0.22973 0.0411,0.0623 0.0965,0.0957 0.15768,0.0955 0.0558,-2.2e-4 0.14778,-0.0383 0.1582,-0.0655 0.0121,-0.0305 0.0288,-0.0214 0.0488,0.0266 0.0243,0.0582 0.22377,0.41095 0.28122,0.49727 0.0243,0.0364 0.0476,0.0758 0.0519,0.0875 0.007,0.0182 0.0511,0.0873 0.13744,0.21381 0.0108,0.0165 0.0726,0.1007 0.13612,0.18686 0.0636,0.0862 0.13681,0.18656 0.16287,0.22302 0.0261,0.0364 0.0528,0.0701 0.0594,0.0747 0.007,0.004 0.009,0.0121 0.005,0.0156 -0.004,0.004 -0.0418,-0.009 -0.084,-0.0292 -0.18145,-0.086 -0.40619,-0.16847 -0.54091,-0.19854 -0.0191,-0.004 -0.0699,-0.0539 -0.13862,-0.1352 -0.19073,-0.22585 -0.43422,-0.45756 -0.59134,-0.56274 -0.0495,-0.0332 -0.0725,-0.0386 -0.10689,-0.0254 -0.0241,0.009 -0.0251,0.0409 -10e-4,0.0409 0.0169,0 0.29208,0.26521 0.3822,0.36836 0.17591,0.20135 0.39376,0.49895 0.48482,0.66236 0.0108,0.0199 0.0338,0.0606 0.0506,0.0903 0.0167,0.0299 0.036,0.0772 0.0432,0.10514 0.007,0.028 0.0203,0.0571 0.0296,0.0648 0.009,0.008 0.0168,0.0239 0.0168,0.036 0,0.0121 0.0121,0.0454 0.0281,0.0738 0.0155,0.0284 0.0467,0.0947 0.0694,0.14714 0.0522,0.12073 0.0929,0.1637 0.1555,0.1637 0.0409,0 0.0476,-0.004 0.0593,-0.0379 0.0211,-0.0606 0.0164,-0.15272 -0.009,-0.18944 -0.0341,-0.048 -0.0364,-0.0793 -0.005,-0.0836 0.0456,-0.007 0.16638,0.14061 0.23792,0.2898 0.0465,0.0969 0.0696,0.13217 0.0922,0.14068 0.0343,0.0134 0.0891,0.0164 0.0991,0.007 0.0192,-0.0192 -0.0627,-0.21103 -0.13882,-0.32485 -0.11172,-0.16709 -0.21425,-0.25966 -0.37872,-0.34209 -0.0827,-0.0414 -0.10326,-0.0678 -0.0976,-0.12557 0.007,-0.0627 0.0297,-0.0598 0.28478,0.0332 0.10528,0.0385 0.3007,0.13872 0.40936,0.21016 0.2386,0.15686 0.38177,0.28431 0.52505,0.46727 0.0531,0.0679 0.0625,0.0746 0.11011,0.0784 0.0286,0.003 0.42284,10e-4 0.87608,-10e-4 0.72242,-0.005 0.8144,-0.008 0.74576,-0.0218 -0.43514,-0.0879 -0.65493,-0.1687 -1.06653,-0.39202 -0.032,-0.0173 -0.0385,-0.0175 -0.0602,-10e-4 -0.0135,0.009 -0.0421,0.0262 -0.0636,0.036 -0.0481,0.0219 -0.0507,0.0417 -0.005,0.0417 0.0452,0 0.0627,0.0202 0.0625,0.0718 -2.3e-4,0.0519 -0.009,0.067 -0.0465,0.0785 -0.0359,0.0107 -0.0819,-0.0121 -0.0909,-0.0464 -0.0107,-0.0378 -0.10662,-0.0992 -0.38679,-0.24641 -0.0199,-0.0108 -0.0742,-0.0561 -0.1206,-0.10151 -0.0664,-0.0649 -0.0895,-0.0807 -0.1085,-0.0742 -0.0472,0.0163 -0.30757,0.0168 -0.34691,6.7e-4 -0.0376,-0.0153 -0.0376,-0.0153 -0.0343,-0.14336 0.003,-0.0764 -0.003,-0.13796 -0.009,-0.15269 -0.0121,-0.0218 -0.008,-0.0274 0.0323,-0.048 0.025,-0.0135 0.0617,-0.0406 0.0816,-0.0617 0.0453,-0.0481 0.0911,-0.0723 0.13646,-0.0723 0.0352,0 0.0352,-2e-5 0.0368,0.12261 9e-4,0.0675 0.003,0.12369 0.004,0.1249 10e-4,10e-4 0.0346,-0.004 0.0733,-0.0121 0.0786,-0.0161 0.0735,-0.0186 0.14415,0.0694 0.0601,0.0749 0.0629,0.0907 0.0204,0.11482 -0.0367,0.0208 -0.0487,0.0505 -0.0204,0.0505 0.008,0 0.0507,0.025 0.0934,0.0557 0.0749,0.0536 0.28276,0.16132 0.31145,0.16132 0.0159,0 0.0304,-0.0339 0.0421,-0.0979 0.008,-0.0426 0.005,-0.0452 -0.0797,-0.11441 -0.25476,-0.20568 -0.61467,-0.55127 -0.78955,-0.75814 -0.19332,-0.22865 -0.39152,-0.52559 -0.59146,-0.88604 -0.1171,-0.21122 -0.22803,-0.46402 -0.31294,-0.71346 -0.0192,-0.0565 -0.0192,-0.0565 0.016,-0.1007 0.0194,-0.0243 0.0413,-0.0549 0.0487,-0.0679 0.0226,-0.0394 0.0308,-0.0315 0.0522,0.0503 0.0246,0.0936 0.14704,0.40634 0.18829,0.48069 0.0161,0.029 0.0293,0.0574 0.0293,0.0632 0,0.0344 0.14327,0.29384 0.27882,0.5049 0.21732,0.33834 0.71647,0.87963 1.08323,1.17469 0.35213,0.28328 0.68599,0.45896 1.06706,0.56151 0.0746,0.02 0.14418,0.0273 0.3074,0.0321 0.19783,0.005 0.21999,0.004 0.35563,-0.0263 0.33727,-0.0758 0.57628,-0.20908 0.81975,-0.45699 0.16145,-0.1644 0.32359,-0.43442 0.37363,-0.62227 0.0573,-0.21486 0.0587,-0.22797 0.0593,-0.51812 4.6e-4,-0.264 -10e-4,-0.29499 -0.0337,-0.45508 -0.0188,-0.0945 -0.039,-0.17178 -0.0449,-0.17178 -0.0261,0 -0.007,-0.0473 0.0371,-0.0901 0.0339,-0.0331 0.0493,-0.0417 0.053,-0.0296 0.0108,0.0362 0.068,0.37161 0.08,0.47032 0.0261,0.21673 0.0137,0.59394 -0.0254,0.7704 -0.0643,0.29011 -0.21823,0.57321 -0.41748,0.76776 -0.1621,0.15826 -0.42887,0.32205 -0.63304,0.38867 -0.0647,0.0211 -0.0573,0.0401 0.0121,0.0308 0.19534,-0.0262 0.44795,-0.13544 0.62929,-0.27208 0.1249,-0.0941 0.30793,-0.28718 0.37429,-0.39483 0.0617,-0.10016 0.15344,-0.27396 0.18231,-0.34553 0.0191,-0.0473 0.0473,-0.15159 0.0701,-0.25919 0.0869,-0.41008 0.0229,-1.30344 -0.1206,-1.6806 -0.0135,-0.0337 -0.0233,-0.0668 -0.0233,-0.0734 7e-5,-0.007 0.018,-0.0311 0.0398,-0.0542 0.21346,-0.22657 0.49003,-0.60886 0.58184,-0.80424 0.0324,-0.069 0.0401,-0.0768 0.0979,-0.0991 0.12934,-0.0499 0.22381,-0.0979 0.32457,-0.16494 0.0816,-0.0543 0.10809,-0.0664 0.12356,-0.0567 0.0108,0.007 0.0215,0.0226 0.0238,0.0352 0.003,0.0121 0.009,0.0282 0.0167,0.0348 0.008,0.008 0.009,-0.005 0.004,-0.0422 -0.0108,-0.075 -0.0313,-0.13405 -0.0436,-0.12652 -0.005,0.004 -0.0137,9e-4 -0.0179,-0.005 -0.0149,-0.0241 -0.0453,-0.0107 -0.0951,0.0398 -0.0593,0.0609 -0.18415,0.14836 -0.22766,0.15928 -0.0308,0.008 -0.0637,-0.0183 -0.0352,-0.0277 0.0231,-0.008 0.0161,-0.0267 -0.009,-0.0267 -0.0395,0 -0.0282,-0.0186 0.0512,-0.0848 0.0414,-0.0345 0.11495,-0.10043 0.16346,-0.14646 0.0484,-0.0461 0.0945,-0.0816 0.10245,-0.0789 0.0176,0.005 0.041,0.0511 0.0506,0.0976 0.004,0.019 0.0108,0.0313 0.0142,0.0274 0.004,-0.004 2.3e-4,-0.0411 -0.008,-0.0828 -0.0135,-0.0672 -0.0254,-0.11428 -0.0739,-0.2916 -0.008,-0.0304 -0.0163,-0.0418 -0.0222,-0.0321 -0.007,0.0108 -0.0207,0.0121 -0.0562,0.003 -0.0901,-0.0239 -0.45824,-0.0558 -0.64363,-0.0558 -0.1167,0 -0.23887,0.008 -0.32548,0.0211 -0.0762,0.0121 -0.24984,0.0266 -0.38577,0.0335 -0.33717,0.0169 -0.58829,0.0356 -0.63892,0.0476 -0.0233,0.005 -0.0574,0.0134 -0.0761,0.0176 -0.0458,0.0108 -0.0379,0.041 0.0159,0.061 0.28126,0.1046 0.37373,0.1528 0.40359,0.21053 0.0108,0.0198 0.0241,0.0916 0.0308,0.15981 0.007,0.0682 0.0226,0.15653 0.0351,0.19632 0.0121,0.0398 0.0286,0.10446 0.0358,0.14379 0.0179,0.0981 0.0433,0.5538 0.0427,0.76637 -4.6e-4,0.17827 -0.0413,0.56847 -0.0664,0.63435 -0.0134,0.0344 -0.0449,0.21785 -0.0718,0.41445 -0.0179,0.13082 -0.0719,0.33007 -0.121,0.44603 -0.021,0.0497 -0.048,0.11751 -0.0598,0.15069 -0.0489,0.13623 -0.0847,0.19798 -0.12611,0.21768 -0.0536,0.0254 -0.18717,0.1656 -0.18717,0.19648 0,0.055 0.0565,0.0475 0.13445,-0.018 0.0594,-0.0499 0.1356,-0.0881 0.17658,-0.0885 0.0401,-4.6e-4 0.0868,0.0514 0.0868,0.096 0,0.0894 -0.0347,0.12894 -0.19735,0.22397 -0.0846,0.0495 -0.10406,0.0516 -0.10406,0.0121 0,-0.0184 -0.0108,-0.0372 -0.0296,-0.0492 -0.0273,-0.0179 -0.0323,-0.0177 -0.0652,0.001 -0.0449,0.0265 -0.0635,0.0664 -0.0536,0.11523 0.005,0.0293 0.003,0.0418 -0.0153,0.0544 -0.0121,0.009 -0.059,0.0522 -0.10299,0.0957 -0.044,0.0436 -0.0828,0.0748 -0.0862,0.0691 -0.004,-0.005 0.0179,-0.0644 0.0471,-0.13068 0.0293,-0.0663 0.0692,-0.18293 0.0887,-0.25919 0.0409,-0.15955 0.11912,-0.32253 0.2488,-0.5186 0.19792,-0.2993 0.27268,-0.49384 0.31207,-0.81227 0.0242,-0.1955 0.0359,-0.25656 0.0861,-0.45076 0.0808,-0.31223 0.0794,-0.30476 0.0721,-0.40637 -0.004,-0.053 -0.0183,-0.14255 -0.0321,-0.19891 -0.0138,-0.0563 -0.0302,-0.16485 -0.0366,-0.2411 -0.0269,-0.32408 -0.0779,-0.49862 -0.16435,-0.56214 -0.15671,-0.11509 -0.57721,-0.20674 -0.84151,-0.18332 -0.053,0.005 -0.1995,0.0139 -0.32548,0.0204 -0.40825,0.0212 -0.4678,0.0344 -0.90744,0.19974 -0.0813,0.0307 -0.20939,0.0715 -0.28446,0.0909 -0.1869,0.0481 -0.28359,0.089 -0.41122,0.17388 -0.19191,0.12759 -0.32799,0.28749 -0.38287,0.45005 -0.0219,0.0649 -0.0959,0.44704 -0.11845,0.6121 -0.007,0.0464 -0.0168,0.11697 -0.0231,0.15672 -0.007,0.0398 -0.0121,0.16537 -0.0121,0.27907 -7e-5,0.2225 0.016,0.31786 0.0766,0.45511 0.0397,0.0895 0.14065,0.23726 0.23409,0.34226 0.0782,0.0879 0.0782,0.0879 0.0799,0.17301 10e-4,0.0789 2.3e-4,0.0833 -0.0171,0.061 -0.31427,-0.40671 -0.49115,-0.64436 -0.56906,-0.7646 -0.10326,-0.15943 -0.12181,-0.19417 -0.14618,-0.27467 -0.0402,-0.13283 -0.0553,-0.24889 -0.0757,-0.58674 -0.008,-0.13469 -0.008,-0.13467 0.0476,-0.25392 0.0307,-0.0656 0.0558,-0.13108 0.0558,-0.14559 0,-0.0407 0.0222,-0.0312 0.0296,0.0135 0.004,0.0215 0.0159,0.0907 0.0273,0.1537 0.0161,0.0889 0.021,0.18478 0.0212,0.42796 4.5e-4,0.30527 9.1e-4,0.31343 0.0245,0.31343 0.0303,0 0.0699,-0.0777 0.0953,-0.18709 0.0231,-0.0994 0.0543,-0.34493 0.0561,-0.43978 0.003,-0.12571 -0.0153,-0.42109 -0.0262,-0.44206 -0.0121,-0.0243 0.0394,-0.0934 0.17122,-0.22739 0.096,-0.0975 0.19897,-0.17503 0.32491,-0.24458 0.10419,-0.0575 0.43463,-0.17682 0.81932,-0.29571 0.11495,-0.0355 0.54075,-0.14051 0.68715,-0.16943 0.12584,-0.0249 0.40678,-0.0733 0.4259,-0.0734 0.005,-4e-5 0.007,0.0149 0.003,0.0333 -0.0135,0.06 0.0134,0.0781 0.12369,0.0846 0.0885,0.005 0.10352,0.003 0.15921,-0.0265 0.0417,-0.0218 0.11159,-0.0406 0.21748,-0.0586 0.16504,-0.028 0.19892,-0.0491 0.10218,-0.0636 -0.0585,-0.009 -0.0819,-0.007 -0.27047,0.0237 -0.069,0.0108 -0.1335,0.0186 -0.14333,0.0167 -0.0121,-0.003 -0.0195,-0.0245 -0.0233,-0.0756 -0.003,-0.0397 -0.0121,-0.0891 -0.0212,-0.11011 -0.0148,-0.0354 -0.014,-0.0391 0.0121,-0.053 0.0153,-0.008 0.0309,-0.0265 0.0347,-0.0406 0.007,-0.0242 -0.0145,-0.18309 -0.0413,-0.31375 -0.007,-0.0325 -0.009,-0.0616 -0.007,-0.0647 0.007,-0.007 0.23977,-0.0383 0.28438,-0.0387 0.028,-2.3e-4 0.0317,0.007 0.0466,0.0811 0.0308,0.15381 0.036,0.19006 0.0367,0.25834 10e-4,0.1249 0.0211,0.12907 0.35632,0.0761 0.0995,-0.0157 0.30832,-0.0372 0.46413,-0.0477 0.15581,-0.0108 0.39179,-0.0272 0.5244,-0.037 0.28917,-0.0214 0.39304,-0.0215 0.66625,-6.9e-4 0.16978,0.0134 0.21264,0.0199 0.23249,0.0379 0.0134,0.0121 0.0216,0.0289 0.0184,0.0375 -0.003,0.008 -6.8e-4,0.0187 0.005,0.0226 0.0176,0.0108 0.0137,-0.0363 -0.007,-0.0746 -0.009,-0.0188 -0.0206,-0.0531 -0.0241,-0.0764 -0.007,-0.0422 -0.007,-0.0422 -0.13605,-0.0483 -0.0713,-0.003 -0.34295,-0.005 -0.6037,-0.004 -0.42406,10e-4 -0.47335,1.3e-4 -0.46693,-0.0167 0.004,-0.0108 -10e-4,-0.0253 -0.0137,-0.0339 -0.0286,-0.021 -0.004,-0.0492 0.0585,-0.068 0.026,-0.008 0.0613,-0.0272 0.0784,-0.0432 0.0276,-0.0255 0.0304,-0.0352 0.0238,-0.0834 -0.004,-0.0298 -0.0167,-0.07 -0.028,-0.0891 -0.0107,-0.0191 -0.0175,-0.0379 -0.0137,-0.0417 0.0245,-0.0245 0.70672,-0.0144 0.89087,0.0134 0.0432,0.007 0.0432,0.007 0.0413,-0.0414 -4.4e-4,-0.0134 -0.004,-0.0301 -0.009,-0.0514 z m 1.28455,0.0804 c 0.0199,-4.6e-4 0.0335,7e-5 0.0383,0.003 0.0108,0.004 0.0108,0.0143 0.003,0.0354 -0.007,0.0164 -0.0108,0.048 -0.0108,0.0702 0,0.0362 -0.007,0.044 -0.0653,0.0772 -0.0692,0.039 -0.0803,0.0575 -0.0856,0.14314 -10e-4,0.0292 -0.005,0.0553 -0.008,0.0581 -0.003,0.003 -0.078,0.0134 -0.16696,0.0235 -0.089,0.0108 -0.1768,0.0214 -0.19503,0.0251 -0.0218,0.004 -0.0351,10e-4 -0.0386,-0.009 -0.0167,-0.0488 -0.0433,-0.15852 -0.0553,-0.227 -0.008,-0.043 -0.0195,-0.0854 -0.0266,-0.0938 -0.008,-0.0108 -0.009,-0.0196 -10e-4,-0.0274 0.0191,-0.0191 0.47336,-0.0735 0.61292,-0.0769 z m 0.37297,0.0799 c -0.009,4.6e-4 -0.0212,0.005 -0.0355,0.0147 -0.0342,0.0223 -0.0514,0.0742 -0.0342,0.10245 0.007,0.0108 0.0376,0.0368 0.0694,0.0585 0.0317,0.0215 0.0668,0.0391 0.0781,0.0391 0.0307,0 0.13364,-0.0691 0.13364,-0.0897 0,-0.009 -0.0108,-0.0235 -0.0234,-0.0305 -0.0196,-0.0108 -0.0259,-0.007 -0.0393,0.0207 -0.0108,0.0215 -0.0269,0.0346 -0.0475,0.0368 -0.0458,0.005 -0.0707,-0.0259 -0.0707,-0.0893 0,-0.0432 -0.009,-0.0639 -0.0308,-0.0628 z m -1.07918,0.0108 c 0.0121,6.8e-4 0.0107,0.007 0.007,0.0243 -0.004,0.0169 0.007,0.0644 0.028,0.11872 0.0192,0.0498 0.0386,0.12087 0.0431,0.15794 0.008,0.0675 0.008,0.0675 -0.0606,0.0813 -0.0807,0.0163 -0.0825,0.0164 -0.093,0.005 -0.018,-0.018 -0.005,-0.0386 0.0304,-0.0512 0.0211,-0.007 0.0483,-0.0223 0.0602,-0.0332 0.0293,-0.0265 0.0285,-0.084 -10e-4,-0.10003 -0.0323,-0.0172 -0.0316,-0.0176 -0.0594,0.0297 -0.0137,0.0233 -0.0328,0.0422 -0.0425,0.0422 -0.0199,0 -0.0625,-0.076 -0.0457,-0.0816 0.005,-0.003 0.02,-0.0108 0.0313,-0.0186 0.0192,-0.014 0.019,-0.0187 -0.004,-0.0729 -0.0137,-0.0319 -0.0249,-0.0625 -0.0249,-0.0682 0,-0.0121 0.0222,-0.0191 0.094,-0.0303 0.0187,-0.003 0.0305,-0.004 0.0378,-0.004 z m 1.52087,2.3e-4 c -0.027,4e-5 -0.0551,0.0149 -0.0593,0.0448 -0.009,0.0665 0.009,0.0874 0.11859,0.12907 0.0555,0.0212 0.0844,0.021 0.13717,-0.001 0.0672,-0.0281 0.0559,-0.0496 -0.0303,-0.0574 -0.079,-0.007 -0.11199,-0.0278 -0.11253,-0.0707 -4.6e-4,-0.0299 -0.0265,-0.0446 -0.0535,-0.0446 z m -2.35315,0.13081 c 0.007,0 0.0121,0.0149 0.0108,0.0331 -9e-4,0.0183 0.0108,0.0917 0.0254,0.16322 0.0149,0.0715 0.0251,0.13627 0.0226,0.14386 -0.005,0.0145 -0.0253,0.0196 -0.35274,0.087 -0.23595,0.0485 -0.53134,0.11159 -0.56658,0.12087 -0.0135,0.004 -0.13532,0.0331 -0.27124,0.0659 -0.26281,0.0633 -0.65189,0.16849 -0.84836,0.22931 -0.15334,0.0475 -0.17633,0.0476 -0.17633,6.8e-4 0,-0.0239 0.13912,-0.16014 0.2193,-0.21478 0.0714,-0.0487 0.24862,-0.13479 0.27734,-0.13479 0.0249,0 0.028,0.0135 0.008,0.0329 -0.038,0.038 0.0494,0.0995 0.14148,0.0996 0.0468,4e-5 0.0714,-0.007 0.10245,-0.0301 0.0226,-0.0165 0.05,-0.0333 0.0612,-0.0374 0.0293,-0.0108 0.0378,-0.0424 0.0167,-0.0635 -0.0161,-0.0161 -0.0207,-0.0159 -0.0416,0.003 -0.0138,0.0121 -0.0372,0.0196 -0.057,0.0172 -0.0266,-0.003 -0.0356,-0.0121 -0.044,-0.0445 -0.005,-0.0223 -0.008,-0.0473 -0.005,-0.0555 0.016,-0.0415 0.54024,-0.22225 0.86973,-0.29973 0.12329,-0.029 0.57957,-0.11643 0.60746,-0.11643 z m -0.14615,0.11576 c -0.004,3e-5 -0.009,1.5e-4 -0.0147,2.3e-4 -0.0562,10e-4 -0.10312,0.0468 -0.10285,0.0986 2.1e-4,0.0419 0.009,0.054 0.0601,0.0851 0.0479,0.029 0.0863,0.0316 0.13863,0.009 0.0362,-0.0156 0.0362,-0.0156 -0.003,-0.0356 -0.0401,-0.0208 -0.0569,-0.0649 -0.0493,-0.12853 0.003,-0.0243 6.7e-4,-0.029 -0.0293,-0.0289 z m -0.62277,0.12531 c -0.0621,0 -0.12181,0.0527 -0.12181,0.10756 0,0.0317 0.009,0.0433 0.0566,0.0735 0.0678,0.0429 0.0723,0.0433 0.14198,0.009 0.0352,-0.0171 0.0546,-0.0343 0.0546,-0.0485 0,-0.0309 -0.03,-0.039 -0.0618,-0.0167 -0.0199,0.0138 -0.0311,0.0153 -0.0428,0.005 -0.0222,-0.0184 -0.0206,-0.0936 0.003,-0.10231 0.0339,-0.0135 0.0183,-0.0285 -0.0288,-0.0285 z m 0.75251,0.21682 c 0.032,-6.7e-4 0.0303,0.007 0.0237,0.0376 -0.0108,0.0526 -0.0155,0.059 -0.0382,0.059 -0.0107,0 -0.0737,0.0134 -0.14094,0.0289 -0.0672,0.0159 -0.16289,0.038 -0.21261,0.0494 -0.6251,0.14098 -1.11556,0.27474 -1.8143,0.4948 -0.11939,0.0376 -0.22602,0.071 -0.23706,0.0743 -0.0121,0.004 -0.0253,-0.004 -0.0333,-0.0188 -0.0108,-0.0207 -0.009,-0.0277 0.014,-0.0425 0.069,-0.0445 0.5251,-0.2095 0.8772,-0.31732 0.45898,-0.14052 1.31748,-0.34543 1.51729,-0.36215 0.0192,-10e-4 0.0336,-0.003 0.0442,-0.003 z m 2.57468,0.0569 c 0.0108,-2.3e-4 0.0239,4.5e-4 0.0418,10e-4 0.0914,0.005 0.10783,0.0176 0.0791,0.0604 -0.0121,0.0176 -0.0425,0.0636 -0.0679,0.10218 -0.0573,0.0869 -0.29452,0.33587 -0.40905,0.42944 -0.0469,0.0383 -0.13405,0.10111 -0.19375,0.13966 -0.0597,0.0385 -0.10998,0.0711 -0.11186,0.0725 -10e-4,10e-4 -0.005,0.0207 -0.008,0.0432 -0.004,0.0456 -0.0542,0.26997 -0.0899,0.40849 -0.0321,0.12423 -0.0428,0.21244 -0.0266,0.22243 0.0269,0.0167 0.0108,0.0414 -0.0645,0.0984 -0.0842,0.0639 -0.13497,0.13095 -0.14674,0.19364 -0.005,0.0285 -0.014,0.0399 -0.0303,0.0399 -0.02,0 -0.0227,-0.009 -0.0227,-0.0822 0,-0.13643 0.0518,-0.26097 0.12302,-0.29651 0.0235,-0.0121 0.0297,-0.0288 0.0414,-0.11589 0.0145,-0.10796 0.0445,-0.23255 0.0942,-0.39146 0.0272,-0.0867 0.0282,-0.0979 0.0108,-0.11065 -0.0108,-0.008 -0.0235,-0.0323 -0.0292,-0.0542 -0.005,-0.0221 -0.0135,-0.051 -0.0176,-0.0643 -0.007,-0.0208 0.0108,-0.0327 0.12275,-0.0871 0.23621,-0.11441 0.43655,-0.29062 0.63437,-0.55779 0.0301,-0.0407 0.0376,-0.0508 0.0697,-0.0518 z m -6.30697,0.37999 c -0.018,7e-5 -0.0363,10e-4 -0.0503,0.004 -0.17752,0.0294 -0.27426,0.20161 -0.27426,0.48791 0,0.16841 0.0499,0.33107 0.13028,0.42492 0.009,0.0121 0.0286,0.0211 0.0414,0.0211 0.0212,0 0.0226,-0.005 0.0148,-0.0628 -0.005,-0.0345 -0.0145,-0.0723 -0.0218,-0.0839 -0.0192,-0.0308 -9e-4,-0.0409 0.0444,-0.0245 0.0612,0.0221 0.0947,0.0175 0.15646,-0.0216 0.0573,-0.0364 0.0804,-0.0731 0.0804,-0.12799 0,-0.0297 -4.6e-4,-0.0299 -0.1038,-0.0263 -0.1015,0.004 -0.10446,0.003 -0.1296,-0.0305 -0.0216,-0.0285 -0.0263,-0.0539 -0.0298,-0.15759 -0.004,-0.11858 -0.003,-0.12517 0.0276,-0.16109 0.038,-0.0453 0.10151,-0.0683 0.16479,-0.0597 0.0468,0.007 0.0468,0.007 0.0468,-0.0819 0,-0.0882 0,-0.0882 -0.0483,-0.0964 -0.0134,-0.003 -0.031,-0.003 -0.0491,-0.003 z m 3.88079,10e-4 c 0.0477,2.2e-4 0.094,0.003 0.14163,0.007 0.30132,0.0267 0.52785,0.10567 0.64814,0.22599 0.0315,0.0315 0.0347,0.0429 0.039,0.1406 0.005,0.10918 0.0299,0.22847 0.0601,0.28683 0.027,0.0523 9e-5,0.0512 -0.0619,-0.003 -0.0403,-0.0348 -0.0655,-0.048 -0.0874,-0.0453 -0.0441,0.005 -0.0458,0.0286 -0.005,0.0669 0.12329,0.11603 0.14751,0.14085 0.14751,0.15148 0,0.007 -0.0172,0.0459 -0.0383,0.0874 -0.0313,0.0616 -0.045,0.0768 -0.0744,0.0827 -0.0374,0.008 -0.0805,-0.0135 -0.11616,-0.055 -0.0108,-0.0121 -0.0631,-0.0327 -0.12074,-0.0468 -0.0563,-0.0138 -0.11764,-0.0311 -0.13615,-0.0383 -0.0438,-0.0169 -0.0756,-0.0877 -0.0573,-0.12772 0.0156,-0.0343 0.0805,-0.0628 0.14307,-0.0628 0.0596,0 0.12275,-0.0218 0.12275,-0.0423 0,-0.0226 -0.0972,-0.0739 -0.17172,-0.0906 -0.11172,-0.025 -0.11549,-0.0224 -0.18993,0.13082 -0.0364,0.075 -0.0762,0.14206 -0.0885,0.14887 -0.0172,0.009 -0.0206,0.0211 -0.0148,0.0515 0.005,0.0296 9.1e-4,0.0472 -0.019,0.0725 -0.0215,0.0274 -0.0262,0.0487 -0.0257,0.11938 6.7e-4,0.083 0.009,0.12652 0.0908,0.42959 0.0628,0.23522 0.0866,0.43948 0.0575,0.49378 -0.0269,0.0503 -0.16616,0.0666 -0.20218,0.0235 -0.0648,-0.0773 -0.12584,-0.13014 -0.15865,-0.13734 -0.0453,-0.009 -0.14701,0.0374 -0.22257,0.10366 -0.0715,0.0627 -0.13824,0.0951 -0.19576,0.0951 -0.0671,0 -0.0831,-0.0219 -0.0825,-0.11334 4.6e-4,-0.067 0.004,-0.0769 0.0403,-0.11294 0.0328,-0.0324 0.0374,-0.0426 0.0253,-0.0573 -0.0234,-0.0282 -0.0865,-0.021 -0.14591,0.0167 -0.0651,0.0413 -0.10057,0.0839 -0.11993,0.14403 -0.008,0.0245 -0.0378,0.0937 -0.0664,0.15374 -0.0442,0.0929 -0.0678,0.1245 -0.1565,0.21098 -0.12449,0.12127 -0.11858,0.11576 -0.18356,0.16659 -0.0285,0.0223 -0.0492,0.043 -0.0461,0.0461 0.0141,0.0141 0.0674,-0.0183 0.18259,-0.11106 0.0683,-0.055 0.14843,-0.11656 0.17796,-0.13692 0.0667,-0.0458 0.16531,-0.15414 0.16531,-0.18149 0,-0.0212 0.0219,-0.0493 0.0386,-0.0493 0.005,0 0.009,0.0164 0.009,0.0366 0,0.02 0.008,0.0543 0.0167,0.0762 0.0153,0.0366 0.0256,0.0423 0.1323,0.0738 0.0737,0.0218 0.12544,0.0444 0.14226,0.0624 0.0364,0.0388 0.0666,0.0354 0.0948,-0.0108 0.0359,-0.0588 0.0311,-0.0901 -0.0182,-0.11912 -0.0406,-0.0239 -0.0465,-0.0466 -0.0121,-0.0466 0.009,0 0.0337,-0.0147 0.055,-0.0324 0.0386,-0.0324 0.0386,-0.0324 0.11845,-0.0121 0.044,0.0108 0.0908,0.0206 0.10406,0.0206 0.0134,5e-5 0.032,0.005 0.0417,0.0108 0.0151,0.009 0.0144,0.0147 -0.005,0.036 -0.0121,0.0137 -0.0342,0.0249 -0.0484,0.0249 -0.0376,0 -0.0722,0.0288 -0.0631,0.0526 0.008,0.0204 0.0284,0.0245 0.11079,0.0211 0.0684,-0.003 0.0813,0.0108 0.0913,0.0947 0.0108,0.0963 0.032,0.14515 0.0613,0.14515 0.0289,0 0.0324,-0.0108 0.0385,-0.1128 0.003,-0.0454 0.009,-0.0862 0.0165,-0.0904 0.007,-0.004 0.0387,-0.0253 0.0719,-0.0469 0.0332,-0.0215 0.0667,-0.0532 0.0745,-0.0704 0.0359,-0.0787 0.0277,-0.32437 -0.0172,-0.51724 -0.009,-0.0398 -0.0169,-0.0924 -0.0171,-0.11684 -8e-5,-0.0245 -0.005,-0.0479 -0.0121,-0.0519 -0.007,-0.004 -0.0121,-0.0157 -0.0121,-0.0257 0,-0.0151 0.0108,-0.0168 0.0645,-0.0108 0.06,0.008 0.0651,0.007 0.0717,-0.019 0.007,-0.0238 0.0121,-0.0262 0.0561,-0.0204 0.0561,0.008 0.13324,-0.0121 0.13324,-0.0342 0,-0.0242 -0.0358,-0.0333 -0.15971,-0.0409 -0.0983,-0.005 -0.12181,-0.0107 -0.14332,-0.0329 -0.043,-0.043 -0.0227,-0.064 0.0621,-0.064 0.0428,0 0.0885,-0.008 0.10958,-0.0188 0.0483,-0.025 0.0424,-0.0582 -0.0108,-0.0635 -0.0286,-0.003 -0.0436,-0.0121 -0.0535,-0.034 -0.0184,-0.0403 0.004,-0.0553 0.0733,-0.0484 0.0644,0.007 0.0744,0.0159 0.083,0.0793 0.005,0.0429 0.0121,0.0527 0.0473,0.0671 0.0349,0.0147 0.0405,0.0226 0.0405,0.0589 0,0.0518 0.0231,0.0616 0.11738,0.0499 0.0666,-0.008 0.0666,-0.008 0.0596,0.0319 -0.0221,0.12638 -0.0227,0.2376 -0.003,0.292 0.0362,0.0947 0.0214,0.21197 -0.051,0.40523 -0.0797,0.2126 -0.0774,0.2031 -0.0819,0.3496 -0.005,0.16172 -0.0516,0.29393 -0.14922,0.42193 -0.0544,0.0714 -0.0699,0.10017 -0.12853,0.24006 -0.0323,0.0769 -0.0808,0.16685 -0.1124,0.20854 -0.0844,0.11105 -0.0906,0.12652 -0.0877,0.21716 0.003,0.0674 -0.004,0.0969 -0.0358,0.17481 -0.0211,0.0515 -0.0446,0.10177 -0.0522,0.11172 -0.008,0.009 -0.0216,0.0337 -0.0312,0.0528 -0.0227,0.0452 -0.0796,0.0879 -0.15574,0.11684 -0.0336,0.0134 -0.0801,0.0233 -0.10326,0.0233 -0.0421,0 -0.0422,-1.8e-4 -0.0349,-0.0454 0.0156,-0.0975 -0.0865,-0.11455 -0.23531,-0.0394 -0.10743,0.0542 -0.20737,0.0769 -0.29479,0.0671 -0.0851,-0.009 -0.0957,-0.0145 -0.20564,-0.0955 -0.0461,-0.0339 -0.13781,-0.0942 -0.20381,-0.13404 -0.12813,-0.0772 -0.15561,-0.10407 -0.13135,-0.1284 0.0107,-0.0108 0.0325,-0.005 0.0957,0.0251 0.11576,0.0565 0.1993,0.0623 0.28581,0.02 0.0902,-0.0441 0.1946,-0.14837 0.2052,-0.20488 0.0155,-0.0824 0.10621,-0.11132 0.3799,-0.121 0.16032,-0.005 0.18898,-0.004 0.20748,0.0134 0.0429,0.0389 0.0889,0.008 0.23641,-0.1567 0.0494,-0.0551 0.0633,-0.0796 0.0633,-0.11065 0,-0.0341 -0.0246,-0.0777 -0.0438,-0.0777 -0.0229,0 -0.0506,0.0289 -0.0566,0.0592 -0.0121,0.0584 -0.0416,0.0661 -0.25518,0.066 -0.18324,-1.3e-4 -0.19897,-0.003 -0.31473,-0.0386 -0.094,-0.0297 -0.13431,-0.0495 -0.17659,-0.0866 -0.0446,-0.0392 -0.061,-0.0469 -0.0891,-0.0414 -0.019,0.004 -0.0586,0.001 -0.0882,-0.005 -0.0516,-0.0121 -0.0561,-0.0108 -0.10554,0.0301 -0.0328,0.0269 -0.0784,0.0491 -0.12477,0.0609 -0.0659,0.0167 -0.0782,0.0168 -0.12356,1.3e-4 -0.0277,-0.0108 -0.0803,-0.0221 -0.1167,-0.0262 -0.15487,-0.0181 -0.34883,-0.0894 -0.36747,-0.13512 -0.005,-0.0121 -0.0159,-0.0488 -0.0245,-0.082 -0.0219,-0.0842 -0.10944,-0.3266 -0.14149,-0.39178 -0.0641,-0.13068 -0.14519,-0.23496 -0.22949,-0.29535 -0.0401,-0.0288 -0.0891,-0.14363 -0.10688,-0.25092 -0.0226,-0.13535 0.007,-0.57695 0.0567,-0.85695 0.009,-0.0536 0.021,-0.11859 0.0253,-0.1442 0.009,-0.0592 0.0657,-0.11603 0.15088,-0.15389 0.21733,-0.0967 0.34061,-0.17323 0.52932,-0.32888 0.11481,-0.0947 0.12906,-0.10285 0.19125,-0.10998 0.10917,-0.0121 0.20293,-0.0393 0.3193,-0.0918 0.093,-0.0421 0.14471,-0.0555 0.34456,-0.0898 0.25245,-0.0433 0.4095,-0.0613 0.5527,-0.0605 z m 2.31217,0.14023 c 0.001,-10e-5 0.003,-9e-5 0.004,3e-5 0.008,6.7e-4 0.0135,0.004 0.0172,0.0108 0.0247,0.0399 -0.15836,0.22818 -0.33636,0.34581 -0.10446,0.069 -0.17271,0.0955 -0.15987,0.0621 0.004,-0.0108 -1.9e-4,-0.0218 -0.009,-0.0255 -0.0317,-0.0121 -0.0179,-0.0429 0.0339,-0.0753 0.14679,-0.0918 0.25296,-0.1683 0.33209,-0.23913 0.0577,-0.0516 0.0957,-0.077 0.11871,-0.0787 z m 0.54435,0.0108 c -0.005,1.6e-4 -0.0108,9e-4 -0.0167,9e-4 -0.0234,0 -0.0592,0.0134 -0.0859,0.0312 -0.0737,0.0503 -0.15879,0.0912 -0.2748,0.13176 -0.10218,0.0358 -0.11011,0.041 -0.13714,0.0911 -0.0616,0.11442 -0.18949,0.31026 -0.28216,0.43194 -0.0535,0.0702 -0.10043,0.13042 -0.10447,0.13364 -0.004,0.003 -0.0487,0.0554 -0.0991,0.11576 -0.0918,0.10971 -0.0918,0.10971 -0.0508,0.33755 0.12436,0.68876 0.13135,0.74869 0.13041,1.10179 -9e-4,0.29974 -0.0108,0.37865 -0.0917,0.69919 -0.0294,0.11711 -0.1401,0.40128 -0.18777,0.48209 -0.0176,0.0299 -0.0448,0.0796 -0.0602,0.11052 -0.0155,0.0309 -0.036,0.0592 -0.0457,0.0629 -0.0267,0.0107 -0.0212,0.0344 0.005,0.0258 0.0323,-0.0108 0.0894,0.0215 0.10648,0.0592 0.0171,0.0375 0.0299,0.0385 0.0824,0.005 0.0321,-0.0199 0.0559,-0.0242 0.11495,-0.0211 0.0745,0.004 0.0745,0.004 0.13714,-0.0842 0.0344,-0.0484 0.0776,-0.10352 0.0957,-0.12261 0.0331,-0.0345 0.0331,-0.0345 -0.004,-0.0536 -0.0571,-0.0296 -0.10151,-0.0234 -0.17143,0.0237 -0.0682,0.0458 -0.10124,0.0495 -0.10245,0.0108 -4.6e-4,-0.0134 -0.005,-0.0325 -0.009,-0.0431 -0.005,-0.0121 0.0134,-0.0656 0.052,-0.14724 0.0335,-0.0705 0.0609,-0.13229 0.0609,-0.13759 0,-0.005 0.0121,-0.034 0.0284,-0.0637 0.0156,-0.0299 0.0317,-0.0718 0.0359,-0.0933 0.004,-0.0215 0.0167,-0.0532 0.028,-0.0705 0.025,-0.038 0.0327,-0.0765 0.0317,-0.15587 -9e-4,-0.06 -2.1e-4,-0.0608 0.0569,-0.0926 0.06,-0.0335 0.22913,-0.21346 0.22913,-0.24379 0,-0.0258 -0.0699,-0.0903 -0.10648,-0.0983 -0.0177,-0.004 -0.0378,-0.008 -0.0445,-0.0108 -0.0121,-0.004 -0.005,-0.18598 0.0121,-0.37215 0.008,-0.0824 0.008,-0.0824 -0.0504,-0.0788 -0.0586,0.004 -0.0586,0.004 -0.066,-0.0562 -0.004,-0.0329 -0.0195,-0.15755 -0.0343,-0.2769 -0.0148,-0.11939 -0.0317,-0.21881 -0.0378,-0.22101 -0.025,-0.009 -0.005,-0.0358 0.0968,-0.13123 0.1245,-0.11616 0.21377,-0.22978 0.2674,-0.34032 0.0207,-0.0428 0.0452,-0.0852 0.0543,-0.0944 0.0292,-0.0292 0.0379,-0.0546 0.057,-0.16555 0.0231,-0.13404 0.0311,-0.24531 0.0177,-0.24975 -0.0148,-0.005 0.009,-0.0789 0.0409,-0.12638 0.0285,-0.0426 0.27261,-0.22052 0.3027,-0.22052 0.0577,-0.0194 0.0367,-0.0854 0.0177,-0.0852 z m -3.98991,0.28134 c -0.0382,-1.4e-4 -0.0605,0.0108 -0.10877,0.0374 -0.044,0.0238 -0.14954,0.0886 -0.2347,0.14426 -0.0851,0.0557 -0.20908,0.12974 -0.27538,0.16482 -0.12288,0.0649 -0.19891,0.11482 -0.19891,0.13041 0,0.005 0.0432,0.008 0.096,0.008 0.0959,-2.3e-4 0.0959,-2.3e-4 0.14767,-0.0508 0.11334,-0.11052 0.30027,-0.19038 0.43448,-0.18548 0.11979,0.004 0.1432,0.004 0.33152,-0.005 0.19512,-0.009 0.19413,-0.0108 0.17209,0.0479 -0.0121,0.0303 -0.0143,0.0309 -0.12961,0.0311 -0.13496,2e-4 -0.25006,0.0233 -0.32986,0.066 -0.0304,0.0163 -0.11724,0.0546 -0.19288,0.0851 -0.11227,0.0453 -0.1542,0.0562 -0.228,0.0596 -0.0497,0.003 -0.0991,0.008 -0.10971,0.0121 -0.0296,0.0121 -0.0788,0.12423 -0.0618,0.14117 0.023,0.023 0.11334,0.0169 0.17077,-0.0121 0.0294,-0.0147 0.066,-0.0266 0.0813,-0.0266 0.023,0 0.0278,0.007 0.0278,0.0362 0,0.0238 0.007,0.0362 0.0177,0.0362 0.009,0 0.0471,0.0134 0.083,0.0289 0.10541,0.0466 0.15126,0.0499 0.19936,0.0144 0.0409,-0.0301 0.0409,-0.0301 0.005,-0.0437 -0.12544,-0.0487 -0.20842,-0.10474 -0.19269,-0.13028 0.009,-0.0144 0.0397,-0.008 0.13583,0.0296 0.10944,0.0423 0.19396,0.0352 0.26632,-0.0225 0.0198,-0.0157 -0.003,-0.0452 -0.0343,-0.0452 -0.0214,0 -0.0472,-0.0325 -0.0472,-0.0594 0,-0.0191 0.11495,-0.016 0.13109,0.004 0.008,0.009 0.0171,0.0575 0.0212,0.10782 0.008,0.0916 0.008,0.0916 0.0721,0.0996 0.0709,0.009 0.12504,10e-6 0.12504,-0.0203 0,-0.007 -0.0121,-0.023 -0.028,-0.0351 -0.0153,-0.0121 -0.0352,-0.0441 -0.0442,-0.0711 -0.009,-0.027 -0.0351,-0.0712 -0.0581,-0.0981 -0.0497,-0.0582 -0.0403,-0.0776 0.0374,-0.0772 0.0839,4.6e-4 0.0928,0.008 0.0928,0.0823 0,0.0427 0.007,0.0703 0.0177,0.0799 0.009,0.008 0.0213,0.0333 0.0255,0.0561 0.008,0.0414 0.008,0.0414 0.0816,0.0379 0.0738,-0.004 0.0738,-0.004 0.0698,0.0388 -0.009,0.10016 -0.12449,0.21352 -0.33049,0.32582 -0.0873,0.0476 -0.0873,0.0476 -0.0331,0.0476 0.0332,3e-5 0.0799,-0.0121 0.1206,-0.0311 0.12221,-0.0573 0.19424,-0.0807 0.20763,-0.0672 0.007,0.007 0.0152,0.0503 0.0184,0.0964 0.005,0.0804 0.004,0.0848 -0.0257,0.10474 -0.0173,0.0108 -0.0317,0.0255 -0.0317,0.0315 0,0.0164 0.0861,0.0121 0.15023,-0.007 0.0317,-0.009 0.0867,-0.0367 0.12235,-0.0602 0.0772,-0.0512 0.0983,-0.0527 0.16858,-0.0121 0.0508,0.0299 0.0551,0.0304 0.0835,0.0121 0.0399,-0.0262 0.0387,-0.0518 -0.0134,-0.26782 -0.0589,-0.24676 -0.0871,-0.32989 -0.12679,-0.37209 -0.0523,-0.0558 -0.0586,-0.1368 -0.019,-0.24708 0.0364,-0.10137 0.0315,-0.12046 -0.039,-0.14871 -0.0542,-0.0218 -0.24993,-0.0442 -0.38556,-0.0442 -0.0867,-5e-5 -0.13176,-0.005 -0.3001,-0.037 -0.0686,-0.0135 -0.10796,-0.0199 -0.13767,-0.02 z m -2.12986,1.66388 c 0.005,2.3e-4 0.008,10e-4 0.0108,0.004 0.0211,0.021 -0.0176,0.0819 -0.0866,0.13646 -0.0672,0.0531 -0.0717,0.0548 -0.0926,0.0337 -0.0277,-0.0277 -0.0147,-0.0632 0.0371,-0.10124 0.0707,-0.0522 0.11065,-0.0748 0.13108,-0.0736 z m 0.25689,0.0155 c 0.0121,4.5e-4 0.0214,0.008 0.0375,0.0253 0.0161,0.0173 0.0292,0.0362 0.0292,0.0418 0,0.0179 0.17986,0.33264 0.25598,0.44801 0.0402,0.061 0.11885,0.17208 0.17457,0.24691 0.11388,0.15276 0.12315,0.1877 0.0577,0.2181 -0.0454,0.0211 -0.1159,0.0778 -0.22012,0.17715 -0.0446,0.0426 -0.0881,0.0774 -0.0963,0.0774 -0.008,0 -0.0151,-0.0149 -0.0151,-0.0348 0,-0.0266 0.0134,-0.0457 0.0542,-0.0803 0.0602,-0.0503 0.0676,-0.0791 0.0274,-0.10715 -0.0389,-0.0273 -0.0608,-0.0234 -0.1003,0.0179 -0.0401,0.0418 -0.0819,0.0437 -0.0877,0.004 -0.003,-0.0183 0.0142,-0.0413 0.0585,-0.08 0.069,-0.0604 0.0765,-0.0967 0.0214,-0.10312 -0.0233,-0.003 -0.0454,0.008 -0.0797,0.0391 -0.0261,0.0237 -0.0504,0.0429 -0.0539,0.0429 -0.0134,0 -0.0948,-0.12356 -0.13229,-0.19962 -0.0385,-0.0778 -0.0385,-0.0778 0.0733,-0.18936 0.10769,-0.10756 0.13418,-0.13818 0.13458,-0.15564 4.6e-4,-0.0195 -0.0403,-0.0461 -0.0706,-0.0461 -0.0351,0 -0.0692,0.0284 -0.17879,0.14831 -0.0345,0.0378 -0.0682,0.0687 -0.0749,0.0687 -0.007,0 -0.0176,-0.0108 -0.0242,-0.0225 -0.009,-0.0172 -0.004,-0.0378 0.0207,-0.0866 0.0335,-0.0656 0.12866,-0.16815 0.15608,-0.16815 0.008,0 0.0153,-0.007 0.0153,-0.0163 0,-0.0195 -0.0539,-0.0801 -0.0712,-0.0801 -0.007,0 -0.0561,0.0411 -0.10971,0.0913 -0.08,0.0747 -0.10084,0.0887 -0.11509,0.0769 -0.0183,-0.0152 -0.0237,-0.0548 -0.008,-0.0617 0.005,-0.003 0.0651,-0.0647 0.13337,-0.13876 0.0729,-0.0789 0.13941,-0.13995 0.16061,-0.14734 0.0121,-0.004 0.0206,-0.007 0.028,-0.007 z m 3.42195,0.0458 c -0.0235,1.9e-4 -0.0456,0.016 -0.0649,0.0476 -0.0375,0.0614 -0.0307,0.13163 0.0233,0.23659 0.0257,0.05 0.0562,0.11657 0.0679,0.14809 0.0148,0.0397 0.0281,0.0573 0.0433,0.0573 0.0336,0 0.0522,-0.0831 0.0526,-0.23507 4.6e-4,-0.11885 -0.003,-0.13738 -0.0281,-0.17842 -0.0316,-0.0508 -0.064,-0.0764 -0.0942,-0.0761 z m -0.47102,0.15391 c -0.018,-2.2e-4 -0.0276,0.008 -0.0368,0.0281 -0.0196,0.0432 -0.076,0.31972 -0.0678,0.33295 0.0144,0.0233 0.0757,0.0108 0.11253,-0.0242 0.0393,-0.0367 0.0407,-0.0436 0.0371,-0.16998 -0.005,-0.17191 -0.003,-0.16243 -0.0366,-0.16634 -0.003,-2.3e-4 -0.005,-4.6e-4 -0.008,-4.6e-4 z m -0.74895,0.2702 c -0.0278,-9e-4 -0.0676,0.014 -0.128,0.0471 -0.13014,0.0711 -0.18687,0.10863 -0.18687,0.12329 0,0.008 0.0159,0.0331 0.0352,0.0547 0.0352,0.0394 0.0352,0.0394 0.34658,0.0402 0.17127,4.5e-4 0.37281,0.005 0.44787,0.0107 0.0993,0.007 0.15937,0.005 0.22072,-0.005 0.0795,-0.0151 0.0873,-0.0144 0.13809,0.0108 0.0641,0.0312 0.11334,0.0331 0.16884,0.007 0.0496,-0.0235 0.078,-0.0159 0.0688,0.0187 -0.005,0.0187 -9e-4,0.0249 0.0165,0.0249 0.0407,0 0.052,-0.0251 0.052,-0.11602 0,-0.0632 -0.005,-0.0924 -0.0189,-0.10608 -0.0247,-0.0247 -0.0351,-0.0239 -0.0904,0.007 -0.0557,0.0313 -0.0668,0.0545 -0.0402,0.0838 0.0342,0.0378 0.0134,0.0609 -0.0523,0.0566 -0.0571,-0.004 -0.0574,-0.004 -0.0635,-0.0519 -0.005,-0.0437 -0.0108,-0.0498 -0.0547,-0.0651 -0.0462,-0.016 -0.0511,-0.0152 -0.0992,0.0151 -0.0655,0.0414 -0.10084,0.0402 -0.16703,-0.005 -0.0823,-0.0566 -0.11643,-0.0625 -0.1959,-0.0343 -0.185,0.0657 -0.24339,0.0819 -0.32207,0.089 -0.0963,0.008 -0.1054,0.004 -0.11818,-0.0676 -0.007,-0.0394 -0.004,-0.0469 0.0274,-0.0694 0.0195,-0.0138 0.0413,-0.0251 0.0485,-0.0251 0.0211,0 0.0153,-0.0222 -0.009,-0.0354 -0.007,-0.004 -0.0149,-0.005 -0.0242,-0.005 z m -1.00704,0.2956 c 0.007,0 0.0157,4.4e-4 0.0253,10e-4 0.046,0.004 0.046,0.004 0.0608,0.0822 0.0148,0.0784 0.0172,0.19074 0.004,0.19801 -0.004,0.003 -0.0327,0.008 -0.0643,0.0121 -0.0425,0.007 -0.0586,0.004 -0.0624,-0.008 -0.003,-0.008 -0.008,-0.0706 -0.0121,-0.13754 -0.008,-0.12234 -0.003,-0.14808 0.0487,-0.14845 z m 2.94644,0.0628 c 0.009,0.003 0.0161,0.0121 0.0139,0.0212 -0.003,0.009 -0.009,0.0744 -0.0152,0.14394 -0.0219,0.25366 -0.0234,0.2589 -0.0961,0.33265 -0.0359,0.0363 -0.10742,0.0971 -0.15905,0.13493 -0.0516,0.0379 -0.11522,0.0781 -0.1415,0.0894 -0.0457,0.0198 -0.0481,0.0196 -0.0598,-0.003 -0.0219,-0.0409 -0.0135,-0.0593 0.0479,-0.1003 0.0331,-0.0222 0.11186,-0.0875 0.17513,-0.14496 0.0633,-0.0575 0.11926,-0.1046 0.12437,-0.1046 0.005,0 0.0161,-0.0339 0.0245,-0.0753 0.0421,-0.20924 0.0682,-0.29861 0.0862,-0.29476 z m -2.66446,0.0995 c 0.0559,-2.3e-4 0.24675,0.0192 0.25557,0.0277 0.004,0.004 0.009,0.0405 0.0107,0.0801 l 2e-5,0 c 0.004,0.0844 0.0156,0.0796 -0.15506,0.0635 -0.12342,-0.0121 -0.12342,-0.0121 -0.11711,-0.0647 0.004,-0.0292 6.8e-4,-0.0635 -0.007,-0.0764 -0.007,-0.0135 -0.008,-0.0258 -0.004,-0.0289 10e-4,-9e-4 0.007,-10e-4 0.0148,-10e-4 z m 0.61028,0.0108 c 0.0592,2.3e-4 0.1292,0.0186 0.16635,0.0469 0.0359,0.0274 0.0735,0.10783 0.082,0.17542 0.005,0.038 -0.0165,0.0442 -0.0446,0.0134 -0.0632,-0.0698 -0.17308,-0.0953 -0.29705,-0.0688 -0.044,0.009 -0.044,0.009 -0.0495,-0.0483 -0.007,-0.0675 0.0121,-0.0917 0.0889,-0.11226 0.0157,-0.004 0.0343,-0.007 0.0539,-0.007 z m -1.43627,0.0735 c 0.009,2.2e-4 0.0183,0.001 0.0273,0.004 0.0293,0.008 0.0335,0.0148 0.0335,0.0558 0,0.0449 -0.003,0.0473 -0.0506,0.0594 -0.0278,0.007 -0.0661,0.0276 -0.085,0.0457 -0.0703,0.0676 -0.14459,0.0168 -0.089,-0.0609 0.0473,-0.066 0.10151,-0.10205 0.15463,-0.10406 0.003,-1.3e-4 0.007,-1.3e-4 0.009,0 z m 4.49403,0.81321 c -0.0399,2.3e-4 -0.0863,0.0523 -0.15264,0.17156 -0.0249,0.0448 -0.052,0.0813 -0.0602,0.0813 -0.008,0 -0.0269,-0.0121 -0.0415,-0.0284 -0.0429,-0.0457 -0.10486,-0.0585 -0.18271,-0.0378 -0.12315,0.0328 -0.21693,0.0134 -0.25259,-0.0538 -0.0177,-0.0331 -0.0383,-0.0312 -0.0735,0.007 -0.0469,0.0503 -0.22764,0.18968 -0.30937,0.23866 -0.0414,0.0247 -0.10918,0.0588 -0.15069,0.0756 -0.0415,0.0168 -0.0825,0.0363 -0.0913,0.0434 -0.008,0.007 -0.0575,0.0257 -0.1085,0.0414 -0.0928,0.0285 -0.0928,0.0285 0.0337,0.0227 0.1686,-0.008 0.32701,-0.0498 0.45633,-0.12127 0.0795,-0.044 0.10406,-0.0527 0.11751,-0.0416 0.009,0.008 0.0169,0.0215 0.0169,0.0307 0,0.0221 0.0622,0.0215 0.19289,-10e-4 0.0563,-0.009 0.1757,-0.0243 0.26521,-0.032 0.11778,-0.0108 0.16825,-0.0192 0.18269,-0.0331 0.0108,-0.0108 0.0535,-0.0843 0.0944,-0.16388 0.041,-0.0796 0.0795,-0.1498 0.0855,-0.15609 0.0218,-0.0224 0.0108,-0.0428 -0.022,-0.0426 z"
       id="path36"
       inkscape:connector-curvature="0"
       sodipodi:nodetypes="ccccccccccccssscccsccccccccccccccscsccscccccccsccccscscscccccsccscccscccccccsccccccsccscsccccccscccccscsccssscccsscssccssccsccccscccccccccccccscccccccscccccccccsccccccccscccccsccccccccccccccccccccccccssscccccccscssccccsccccccscccscccccccccccccccccccccccccccccccccccsccscccsccccccscccsscccssccccccccccscccssccccccccscccscscsssccccccccccsccccccccsscssccssscsccccccssscccsccccscccssccccccccccsscsccccscccccsccsccsccccsccccccsscsccccsccccscscccccccssssscscccscccccscccscccscccssccsscscccccsssccccscccccccssccccccscsssssccsccccccccccsccccccccscccsccccccscscscccccccccccccccscccscccccscccccccccccccccscsssccccccccccccsssscccccsscscsccccsccccccscccsssccccccccscccccsccscssccsccccsccscscscsccsssccccscccccscsccccccscccscssccscssccccccccscccscccccccccccccccccccsccccccscccccccccsccccscccccccscccccccscccsccccccccscccccc" />
    <text
       xml:space="preserve"
       style="font-style:normal;font-weight:normal;font-size:10px;line-height:125%;font-family:sans-serif;letter-spacing:0px;word-spacing:0px;fill:#000000;fill-opacity:1;stroke:none;stroke-width:1px;stroke-linecap:butt;stroke-linejoin:miter;stroke-opacity:1"
       x="670.95685"
       y="943.37219"
       id="text4317"
       sodipodi:linespacing="125%"><tspan
         sodipodi:role="line"
         id="tspan4319"
         x="670.95685"
         y="943.37219"
         style="font-style:normal;font-variant:normal;font-weight:normal;font-stretch:normal;font-size:1.25px;font-family:'Liberation Serif';-inkscape-font-specification:'Liberation Serif'">Привет, потомки!</tspan></text>
    <text
       sodipodi:linespacing="125%"
       id="text4421"
       y="945.58759"
       x="672.03381"
       style="font-style:normal;font-weight:normal;font-size:10px;line-height:125%;font-family:sans-serif;letter-spacing:0px;word-spacing:0px;fill:#000000;fill-opacity:1;stroke:none;stroke-width:1px;stroke-linecap:butt;stroke-linejoin:miter;stroke-opacity:1"
       xml:space="preserve"><tspan
         style="font-style:normal;font-variant:normal;font-weight:normal;font-stretch:normal;font-size:1.25px;font-family:'Liberation Serif';-inkscape-font-specification:'Liberation Serif'"
         y="945.58759"
         x="672.03381"
         id="tspan4423"
         sodipodi:role="line">Как вы там?</tspan></text>
    <text
       xml:space="preserve"
       style="font-style:normal;font-weight:normal;font-size:10px;line-height:125%;font-family:sans-serif;letter-spacing:0px;word-spacing:0px;fill:#000000;fill-opacity:1;stroke:none;stroke-width:1px;stroke-linecap:butt;stroke-linejoin:miter;stroke-opacity:1"
       x="669.73633"
       y="947.76709"
       id="text4429"
       sodipodi:linespacing="125%"><tspan
         sodipodi:role="line"
         id="tspan4431"
         x="669.73633"
         y="947.76709"
         style="font-style:normal;font-variant:normal;font-weight:normal;font-stretch:normal;font-size:1.25px;font-family:'Liberation Serif';-inkscape-font-specification:'Liberation Serif'">Высадились на Марс?</tspan></text>
  </g>
</svg>
